<?xml version="1.0" encoding="UTF-8" standalone="no"?>
<!-- Created with Inkscape (http://www.inkscape.org/) -->

<svg
   width="300"
   height="300"
   viewBox="0 0 79.374999 79.375002"
   version="1.1"
   id="svg1"
   inkscape:version="1.3.2 (091e20e, 2023-11-25)"
   sodipodi:docname="asterisk.svg"
   xmlns:inkscape="http://www.inkscape.org/namespaces/inkscape"
   xmlns:sodipodi="http://sodipodi.sourceforge.net/DTD/sodipodi-0.dtd"
   xmlns="http://www.w3.org/2000/svg"
   xmlns:svg="http://www.w3.org/2000/svg">
  <sodipodi:namedview
     id="namedview1"
     pagecolor="#ffffff"
     bordercolor="#000000"
     borderopacity="0.25"
     inkscape:showpageshadow="2"
     inkscape:pageopacity="0.0"
     inkscape:pagecheckerboard="0"
     inkscape:deskcolor="#d1d1d1"
     inkscape:document-units="mm"
     inkscape:zoom="0.2102413"
     inkscape:cx="394.78447"
     inkscape:cy="561.25984"
     inkscape:window-width="2560"
     inkscape:window-height="1387"
     inkscape:window-x="1496"
     inkscape:window-y="25"
     inkscape:window-maximized="1"
     inkscape:current-layer="layer1" />
  <defs
     id="defs1" />
  <g
     inkscape:label="Layer 1"
     inkscape:groupmode="layer"
     id="layer1">
    <path
       id="text1"
       style="font-size:221.079px;font-family:Trattatello;-inkscape-font-specification:'Trattatello, Normal';stroke:#000000;stroke-width:0"
       d="M 48.297591 2.4203518 C 47.671202 2.4203518 47.026132 2.4571914 46.362896 2.5308843 C 45.036423 2.6782701 43.783751 2.8993076 42.604664 3.1940793 C 41.425578 3.488851 40.615268 3.7098884 40.173111 3.8572743 C 38.551866 4.2994318 36.930214 4.373111 35.30897 4.0783393 C 33.687725 3.7835676 32.287771 3.6362093 31.108685 3.6362093 C 30.076984 3.6362093 29.413956 4.0782841 29.119185 4.9625992 C 28.971799 5.8469144 29.560927 7.6894092 30.887399 10.489741 C 31.624329 13.290071 32.066691 15.869358 32.214077 18.227532 C 32.361463 20.43832 32.582645 23.238644 32.877416 26.628518 L 33.540755 32.15566 C 32.214283 32.450431 31.108893 32.59779 30.224577 32.59779 C 29.487648 32.59779 28.52954 32.450431 27.350453 32.15566 C 23.960579 30.239644 21.307436 28.323469 19.39142 26.407453 C 17.475404 24.491437 14.97006 22.722621 11.874957 21.101377 C 10.990642 20.659219 10.032533 20.732899 9.0008325 21.322442 C 8.1165174 21.764599 7.2323087 22.501907 6.3479937 23.533608 C 5.4636785 24.565309 4.6528524 25.744176 3.9159231 27.070648 C 3.1789938 28.249735 2.589349 29.281243 2.1471915 30.165558 C 1.4102623 31.492031 0.82061752 32.818772 0.37845996 34.145245 C 0.083688259 35.471717 0.89451449 36.650584 2.8105305 37.682285 C 5.6108616 38.861371 8.2640049 39.819717 10.769564 40.556646 C 13.422509 41.146189 16.296317 42.030339 19.39142 43.209426 C 20.570506 44.093741 21.601997 44.683174 22.486312 44.977946 C 23.370627 45.125332 23.960272 45.567407 24.255044 46.304336 C 25.581516 47.336037 26.023879 48.441741 25.581722 49.620827 C 25.28695 50.652528 24.550023 51.684036 23.370936 52.715737 C 22.19185 53.747438 20.717996 54.853143 18.949366 56.032229 C 17.328122 57.06393 16.00155 58.095438 14.969849 59.127139 C 14.085534 59.864068 12.832862 60.895576 11.211618 62.222049 C 9.5903737 63.401135 8.1899024 64.43316 7.0108156 65.317475 C 6.2738864 66.054404 6.1266045 66.643838 6.568762 67.085995 C 7.0109195 67.528153 7.6744638 67.970227 8.5587789 68.412385 C 9.5904795 68.854543 10.69587 69.296617 11.874957 69.738775 C 13.201429 70.180933 14.23292 70.770882 14.969849 71.507811 C 15.854164 72.539512 16.738373 73.6447 17.622688 74.823786 C 18.654389 75.855487 19.612497 76.739637 20.496812 77.476566 C 21.528513 78.06611 22.486621 78.360826 23.370936 78.360826 C 24.255252 78.213441 25.13946 77.550328 26.023775 76.371241 C 27.350248 75.192155 28.382256 73.86593 29.119185 72.392071 C 29.856114 70.770827 30.519141 69.149369 31.108685 67.528125 C 31.845614 65.906881 32.582541 64.359102 33.31947 62.885244 C 34.056399 61.263999 35.08789 59.790416 36.414362 58.463944 C 37.446063 56.842699 38.478071 56.179587 39.509772 56.474359 C 40.541473 56.621745 41.425681 57.284857 42.162611 58.463944 C 42.89954 59.790416 43.636467 61.263999 44.373396 62.885244 C 45.257711 64.506488 46.068537 66.201625 46.805467 67.970255 C 47.689782 69.738885 48.500091 71.507701 49.23702 73.276331 C 49.973949 74.897576 50.637494 76.29748 51.227037 77.476566 C 52.406124 79.097811 53.732178 79.539886 55.206037 78.802956 C 56.679895 78.066027 58.227648 77.255557 59.848892 76.371241 C 61.617523 75.486926 63.091376 74.676456 64.270463 73.939526 C 65.596936 73.202597 66.555044 72.465806 67.144587 71.728876 C 67.881516 70.844561 68.24998 69.886216 68.24998 68.854515 C 68.24998 67.822814 67.881516 66.42291 67.144587 64.65428 C 66.70243 64.212123 65.891603 63.474815 64.712517 62.443114 L 61.17557 58.906074 C 59.996484 57.726987 58.891094 56.548121 57.859393 55.369034 C 56.827692 54.189948 56.238047 53.37896 56.090661 52.936802 C 54.911574 51.168172 54.174648 49.768268 53.879876 48.736567 C 53.585104 47.557481 54.322031 46.525456 56.090661 45.641141 C 57.417134 45.051598 59.112168 44.462164 61.17557 43.872621 C 63.238972 43.283078 65.301953 42.767324 67.365355 42.325166 C 69.576143 41.735623 71.713541 41.146189 73.776943 40.556646 C 75.840345 39.967103 77.535379 39.37767 78.861852 38.788126 C 79.451396 38.345969 79.598677 37.756019 79.303906 37.01909 C 79.009134 36.28216 78.493389 35.47169 77.75646 34.587375 C 77.166916 33.70306 76.503372 32.892589 75.766443 32.15566 C 75.176899 31.271345 74.808436 30.607716 74.66105 30.165558 C 74.366278 29.133857 74.071714 28.323387 73.776943 27.733843 C 73.482171 27.1443 73.18709 26.628546 72.892318 26.186388 C 72.744933 25.744231 72.524268 25.302156 72.229496 24.859998 L 71.566158 22.206702 C 71.124 21.469773 70.608255 21.101377 70.018711 21.101377 C 69.576554 21.101377 68.986909 21.248735 68.24998 21.543507 C 67.660436 21.838279 66.996892 22.28087 66.259963 22.870413 C 65.670419 23.459957 65.007392 23.902032 64.270463 24.196803 C 63.091376 24.786347 62.28055 25.302101 61.838392 25.744258 C 61.543621 26.186416 61.322956 26.554812 61.17557 26.849583 C 61.028185 27.144355 60.807003 27.512751 60.512231 27.954908 C 60.21746 28.24968 59.627815 28.618076 58.7435 29.060233 C 57.711799 29.355005 56.606409 29.502363 55.427322 29.502363 C 54.395621 29.354977 53.437513 29.576015 52.553198 30.165558 C 51.521497 30.46033 50.711187 30.681884 50.121644 30.82927 C 49.532101 30.976656 48.868557 31.41873 48.131627 32.15566 C 47.836856 32.15566 47.615674 31.860943 47.468288 31.2714 C 47.468288 30.53447 47.099825 30.165558 46.362896 30.165558 C 47.099825 28.986471 47.616087 27.733926 47.910859 26.407453 C 48.205631 24.933595 48.426295 23.533175 48.573681 22.206702 C 48.721067 20.880229 48.794966 19.627684 48.794966 18.448597 C 48.942352 17.122124 49.163534 15.943258 49.458305 14.911557 C 50.195235 13.142928 50.858263 11.44779 51.447805 9.8265457 C 51.889963 8.500073 52.258426 7.2475275 52.553198 6.0684407 C 52.84797 4.8893539 52.84797 4.152046 52.553198 3.8572743 C 52.11104 3.120345 51.30073 2.6782701 50.121644 2.5308843 C 49.532101 2.4571914 48.923981 2.4203518 48.297591 2.4203518 z "
       transform="scale(0.999502,1.0004982)" />
  </g>
</svg>
