<?xml version="1.0" encoding="UTF-8" standalone="no"?>
<!-- Created with Inkscape (http://www.inkscape.org/) -->

<svg
   width="795"
   height="138"
   viewBox="0 0 795 138"
   version="1.1"
   id="svg1"
   sodipodi:docname="logo-2.svg"
   inkscape:version="1.3.2 (091e20e, 2023-11-25)"
   xmlns:inkscape="http://www.inkscape.org/namespaces/inkscape"
   xmlns:sodipodi="http://sodipodi.sourceforge.net/DTD/sodipodi-0.dtd"
   xmlns="http://www.w3.org/2000/svg"
   xmlns:svg="http://www.w3.org/2000/svg">
  <sodipodi:namedview
     id="namedview1"
     pagecolor="#ffffff"
     bordercolor="#000000"
     borderopacity="0.25"
     inkscape:showpageshadow="2"
     inkscape:pageopacity="0.0"
     inkscape:pagecheckerboard="0"
     inkscape:deskcolor="#d1d1d1"
     inkscape:document-units="mm"
     inkscape:zoom="0.4275"
     inkscape:cx="398.83041"
     inkscape:cy="100.5848"
     inkscape:window-width="1872"
     inkscape:window-height="1095"
     inkscape:window-x="1773"
     inkscape:window-y="143"
     inkscape:window-maximized="0"
     inkscape:current-layer="layer1" />
  <defs
     id="defs1" />
  <g
     inkscape:label="Layer 1"
     inkscape:groupmode="layer"
     id="layer1"
     style="display:inline">
    <path
       id="text2"
       style="font-size:96px;font-family:Trattatello;-inkscape-font-specification:'Trattatello, Normal';stroke:#000000;stroke-width:0"
       d="m 127.42059,4.5027523 c -1.408,0.448 -2.68785,0.959157 -3.83985,1.535157 -1.024,0.511999 -2.04826,1.056813 -3.07226,1.632812 -0.96,0.576 -1.69504,1.120813 -2.20704,1.632813 h -0.76757 c -0.256,0 -0.44818,0.063406 -0.57617,0.191406 -0.256,0.128 -0.51354,0.223109 -0.76954,0.287109 h -0.57617 c -0.704,0.2559997 -1.21515,0.6720477 -1.53515,1.2480467 -0.256,0.512 -0.47988,1.056813 -0.67188,1.632813 -0.128,0.575999 -0.28847,1.11886 -0.48047,1.630859 -0.128,0.511999 -0.38358,0.864641 -0.76758,1.056641 -0.256,0.191999 -0.64034,0.70511 -1.15234,1.537109 -0.512,0.831999 -1.02316,1.727501 -1.53516,2.6875 -0.512,0.959999 -0.9934,1.918907 -1.4414,2.878906 -0.384,0.895999 -0.60788,1.569579 -0.67188,2.017578 l -0.28711,2.6875 c -0.256,0.895999 -0.64034,2.078783 -1.15234,3.550782 -0.448,1.471998 -0.67188,3.136189 -0.67188,4.992187 v 5.857422 c 0,0.448 -0.0951,1.087923 -0.2871,1.919922 -0.192,0.831999 -0.41588,1.664094 -0.67188,2.496094 -0.256,0.831999 -0.48183,1.598735 -0.67383,2.302734 -0.192,0.639999 -0.28711,1.056047 -0.28711,1.248047 v 1.919922 c 0,0.128 -0.0317,0.256766 -0.0957,0.384765 -0.064,0.128 -0.0957,0.254813 -0.0957,0.382813 -0.32,0.128 -0.51218,0.288469 -0.57618,0.480469 v 0.576172 2.6875 c -0.064,0.447999 -0.16106,0.897703 -0.28906,1.345703 -0.128,0.383999 -0.25481,0.800047 -0.38281,1.248047 -0.064,0.447999 -0.19277,0.927453 -0.38477,1.439453 0,0.895999 -0.19217,2.207548 -0.57617,3.935547 -0.384,1.727998 -0.83175,3.520954 -1.343751,5.376953 -0.448,1.791999 -0.86405,3.422529 -1.24804,4.894529 -0.384,1.472 -0.57618,2.3358 -0.57618,2.5918 v 9.02539 1.72656 c 0.064,0.704 0.22447,1.40928 0.48047,2.11328 0.256,0.704 0.60864,1.31222 1.05664,1.82422 0.512,0.512 1.247031,0.76758 2.207031,0.76758 0.512,0 1.12022,-0.25558 1.82422,-0.76758 0.768,-0.448 1.40792,-1.08792 1.91992,-1.91992 0.384,-1.216 0.70494,-2.5295 0.96094,-3.9375 0.256,-1.408 0.51158,-2.84636 0.76758,-4.31836 0.256,-1.536 0.51158,-3.04167 0.76758,-4.51367 0.256,-1.536 0.57694,-2.97436 0.96094,-4.31836 1.08799,-2.24 2.30248,-4.35194 3.64648,-6.335938 1.344,-2.047998 3.16866,-3.936064 5.47266,-5.664063 0.896,-0.511999 1.44081,-0.928047 1.63281,-1.248047 0.256,-0.383999 0.57498,-0.576171 0.95898,-0.576171 0.64,0 1.18482,0.192172 1.63282,0.576171 0.512,0.384 0.92804,0.831751 1.24804,1.34375 0.32,0.448 0.54388,0.927454 0.67188,1.439454 0.128,0.511999 0.1914,0.896344 0.1914,1.152343 v 3.744141 c 0,1.343999 -0.25557,2.59214 -0.76757,3.74414 -0.512,1.088 -1.21729,2.49466 -2.11329,4.22266 -0.448,0.96 -0.83039,1.92086 -1.15039,2.88086 -0.256,0.896 -1.02469,1.8232 -2.30468,2.7832 -0.448,0.384 -1.08793,0.99222 -1.91993,1.82422 -0.83199,0.832 -1.7275,1.63239 -2.6875,2.40039 -0.192,0.256 -0.51293,0.67205 -0.96093,1.24805 -0.448,0.512 -0.89575,1.08851 -1.34375,1.72851 -0.384,0.576 -0.76835,1.18422 -1.15235,1.82422 -0.32,0.64 -0.48047,1.18286 -0.48047,1.63086 0,0.704 0.19218,1.21711 0.57618,1.53711 0.384,0.384 0.83175,0.63958 1.34375,0.76758 0.512,0.192 1.02511,0.28711 1.53711,0.28711 0.512,0.064 0.86464,0.0957 1.05664,0.0957 h 3.45507 1.05664 c 0.832,0 1.53533,-0.28728 2.11133,-0.86328 0.64,-0.576 1.15311,-1.24763 1.53711,-2.01563 0.448,-0.832 0.8621,-1.63239 1.2461,-2.40039 0.384,-0.832 0.80004,-1.47192 1.24804,-1.91992 0.896,-0.96 1.63299,-2.07938 2.20899,-3.35937 0.576,-1.28 0.99204,-2.40133 1.24804,-3.36133 0.384,-0.384 0.67129,-0.86346 0.86329,-1.43946 0.256,-0.576 0.60864,-1.05545 1.05664,-1.43945 0.384,-0.448 0.73664,-1.18498 1.05664,-2.20898 0,-0.896 0.0634,-1.47057 0.1914,-1.72657 0.192,-0.32 0.28711,-0.89651 0.28711,-1.72851 v -1.82422 c 0.128,-0.384 0.25677,-0.736641 0.38477,-1.056641 0.128,-0.319999 0.22311,-0.607281 0.28711,-0.863281 0.128,-0.32 0.19336,-0.575578 0.19336,-0.767578 0,-0.895999 -0.0654,-1.95197 -0.19336,-3.167969 -0.064,-1.215999 -0.0957,-2.016391 -0.0957,-2.40039 l 0.28907,-3.263672 c 0,-0.192 -0.0317,-0.863626 -0.0957,-2.015625 -0.064,-1.215999 -0.25617,-2.497798 -0.57617,-3.841797 -0.256,-1.343999 -0.70375,-2.558486 -1.34375,-3.646485 -0.64,-1.087998 -1.56916,-1.632812 -2.78515,-1.632812 h -1.63086 c -0.512,0 -1.15193,0.223875 -1.91993,0.671875 -0.70399,0.384 -1.44098,0.89711 -2.20898,1.537109 -0.768,0.576 -1.50303,1.18422 -2.20703,1.824219 -0.704,0.639999 -1.24881,1.151157 -1.63281,1.535156 -1.344,0.895999 -2.56044,1.823204 -3.64844,2.783203 -1.088,0.96 -2.01521,1.441407 -2.7832,1.441407 -0.384,0 -0.63958,-0.257532 -0.76758,-0.769531 -0.064,-0.256 -0.0977,-0.511579 -0.0977,-0.767579 0,-0.639999 0.12877,-1.69597 0.38477,-3.167968 0.256,-1.471999 0.54328,-2.975721 0.86328,-4.511719 0.32,-1.535999 0.60923,-2.910954 0.86523,-4.126953 0.32,-1.215999 0.51217,-1.921282 0.57617,-2.113281 l 1.05469,-4.22461 c 0,-0.256 0.0654,-0.703751 0.19336,-1.34375 0.192,-0.639999 0.38417,-1.311626 0.57617,-2.015625 0.256,-0.703999 0.44622,-1.375626 0.57422,-2.015625 0.192,-0.639999 0.28906,-1.08775 0.28906,-1.34375 0.512,-1.343999 1.15193,-2.592142 1.91993,-3.74414 0.768,-1.151999 1.82397,-2.112861 3.16796,-2.88086 0.512,-0.511999 1.02316,-0.799281 1.53516,-0.863281 0.576,-0.128 1.21592,-0.191406 1.91992,-0.191406 0.512,0 1.02511,-0.0317 1.53711,-0.0957 0.512,-0.064 0.99146,-0.321532 1.43946,-0.769532 1.27999,-1.215999 2.46473,-2.367079 3.55273,-3.455078 0.896,-0.895999 1.72809,-1.791501 2.49609,-2.6875 0.768,-0.895999 1.15235,-1.601282 1.15235,-2.113281 0,-0.639999 -0.12877,-1.472095 -0.38477,-2.496094 -0.256,-1.023999 -0.67205,-2.0146097 -1.24805,-2.9746087 -0.57599,-0.959999 -1.31298,-1.792095 -2.20898,-2.496094 -0.896,-0.703999 -2.01538,-1.056641 -3.35937,-1.056641 z m 85.34375,0.767579 c -0.448,0 -0.92746,0.097062 -1.43946,0.289062 -0.512,0.192 -1.02315,0.447578 -1.53515,0.767578 -0.384,0.128 -0.80005,0.288469 -1.24805,0.480469 -0.448,0.192 -0.92941,0.287109 -1.44141,0.287109 -1.088,0.192 -2.0469,0.639751 -2.8789,1.34375 -0.768,0.704 -1.47329,1.504392 -2.11328,2.4003907 -0.576,0.831999 -1.08716,1.695798 -1.53516,2.591797 -0.384,0.895999 -0.70494,1.632985 -0.96094,2.208984 -1.472,3.391997 -2.87866,6.623316 -4.22265,9.695313 -1.28,3.071997 -2.1755,6.335019 -2.6875,9.791015 l -1.05664,6.433594 c -0.128,0.895999 -0.35188,1.791501 -0.67188,2.6875 -0.32,0.895999 -0.54388,1.599329 -0.67188,2.111328 v 3.457031 c 0,0.959999 -0.0971,1.726735 -0.28906,2.302735 -0.128,0.575999 -0.38358,1.312985 -0.76758,2.208984 0,0.448 -0.0634,0.959157 -0.1914,1.535156 -0.064,0.512 -0.0957,1.441158 -0.0957,2.785157 l -0.28907,10.080078 c -0.512,0.447999 -0.83098,0.895751 -0.95898,1.343751 -0.064,0.384 -0.0977,0.83175 -0.0977,1.34375 -0.128,0.96 -0.1914,1.72869 -0.1914,2.30469 0.064,0.576 0.0323,1.34273 -0.0957,2.30273 -0.064,2.176 -0.48005,3.9036 -1.24804,5.18359 -0.768,1.216 -1.6318,2.24027 -2.5918,3.07227 -0.896,0.768 -1.7281,1.50499 -2.4961,2.20898 -0.70399,0.64 -1.05664,1.5038 -1.05664,2.5918 -0.064,0.704 0.12818,1.21516 0.57618,1.53516 0.448,0.256 0.99281,0.44817 1.63281,0.57617 0.704,0.128 1.40733,0.19336 2.11133,0.19336 0.704,0 1.31222,0.0317 1.82422,0.0957 0.384,0 0.80004,-0.16047 1.24804,-0.48047 0.512,-0.384 0.95975,-0.57617 1.34375,-0.57617 l 1.15235,0.57617 c 0.768,0.32 1.63179,0.48047 2.59179,0.48047 h 2.6875 c 0.384,0.128 1.08929,0.35188 2.11328,0.67188 1.088,0.32 1.88644,0.54387 2.39844,0.67187 0.192,0 0.48124,-0.06536 0.86524,-0.19336 0.448,-0.064 0.86404,-0.22251 1.24804,-0.47851 0.384,-0.192 0.70299,-0.48124 0.95899,-0.86524 0.32,-0.32 0.48047,-0.70239 0.48047,-1.15039 0.128,-1.728 -0.25635,-2.91273 -1.15235,-3.55273 -0.832,-0.704 -1.7909,-1.21711 -2.8789,-1.53711 -1.216,-0.384 -2.30368,-0.89516 -3.26368,-1.53516 -0.95999,-0.64 -1.37604,-1.82473 -1.24804,-3.55273 v -2.87891 c 0.064,-0.192 0.1274,-0.57634 0.1914,-1.15234 0.128,-0.576 0.28847,-1.15252 0.48047,-1.72852 0.192,-0.576 0.44758,-1.08715 0.76758,-1.53515 0.32,-0.448 0.70434,-0.67188 1.15234,-0.67188 1.088,0.064 2.01521,0.51175 2.78321,1.34375 0.832,0.832 1.53533,1.79091 2.11133,2.87891 0.576,1.024 1.0574,2.11362 1.4414,3.26562 0.384,1.088 0.67128,1.9518 0.86328,2.5918 0.384,0.96 0.80005,2.07938 1.24805,3.35937 0.512,1.28 1.12022,2.49644 1.82422,3.64844 0.704,1.152 1.53609,2.14456 2.49609,2.97656 0.96,0.832 2.14474,1.24805 3.55274,1.24805 0.32,0.064 0.79945,-0.25694 1.43945,-0.96094 0.64,-0.704 1.34333,-1.5995 2.11133,-2.6875 0.832,-1.088 1.66409,-2.27273 2.49609,-3.55273 0.832,-1.344 1.56899,-2.62385 2.20899,-3.83984 0.704,-1.216 1.27856,-2.30368 1.72656,-3.26368 0.448,-0.96 0.67187,-1.59992 0.67187,-1.91992 0,-0.128 0.0337,-0.35187 0.0977,-0.67187 0.064,-0.384 0.0957,-0.76835 0.0957,-1.15235 0,-0.384 -0.0654,-0.73664 -0.19336,-1.05664 -0.064,-0.32 -0.22251,-0.51217 -0.47851,-0.57617 h -0.86524 c -0.704,0 -1.27856,0.38434 -1.72656,1.15234 -0.448,0.768 -1.02452,1.34452 -1.72851,1.72852 -0.32,0.32 -0.60924,0.73605 -0.86524,1.24805 -0.256,0.512 -0.51158,0.99145 -0.76758,1.43945 -0.256,0.384 -0.54328,0.73664 -0.86328,1.05664 -0.256,0.256 -0.57694,0.35111 -0.96094,0.28711 -1.15199,0 -2.17626,-0.47945 -3.07226,-1.43945 -0.832,-0.96 -1.53533,-2.07938 -2.11133,-3.35938 -0.576,-1.28 -1.02375,-2.55984 -1.34375,-3.83984 -0.256,-1.344 -0.38477,-2.399971 -0.38476,-3.167971 0.064,-0.64 0.35323,-1.440392 0.86523,-2.400391 0.576,-1.023999 1.18422,-2.07997 1.82422,-3.167969 0.704,-1.087999 1.34392,-2.175673 1.91992,-3.263671 0.576,-1.151999 0.89498,-2.20797 0.95898,-3.167969 0,-0.192 -0.16046,-0.70511 -0.48046,-1.53711 -0.32,-0.831999 -0.76775,-1.695797 -1.34375,-2.591797 -0.512,-0.959999 -1.15193,-1.823797 -1.91993,-2.591796 -0.768,-0.768 -1.56839,-1.184047 -2.40039,-1.248047 -1.216,-0.064 -2.36708,0.256938 -3.45508,0.960937 -1.02399,0.704 -1.98486,1.502439 -2.88085,2.398438 l -2.30274,2.304687 c -0.64,0.704 -1.15311,1.024938 -1.53711,0.960938 -0.256,0 -0.51158,-0.128766 -0.76758,-0.384766 -0.192,-0.32 -0.38417,-0.672641 -0.57617,-1.056641 -0.128,-0.383999 -0.22311,-0.768344 -0.28711,-1.152343 0,-0.448 0.0317,-0.798688 0.0957,-1.054688 0,-0.831999 0.16046,-1.729454 0.48046,-2.689453 0.384,-1.023999 0.83175,-2.175079 1.34375,-3.455078 v -1.919922 c 0.512,-2.111998 1.08852,-4.287346 1.72852,-6.527344 0.64,-2.303997 1.5038,-4.576408 2.5918,-6.816406 l 0.76758,-1.824219 c 0.31999,-1.535998 0.95992,-2.720735 1.91992,-3.552734 0.96,-0.831999 2.04767,-1.535329 3.26367,-2.111328 1.28,-0.576 2.59155,-1.120813 3.93555,-1.632813 1.40799,-0.511999 2.7215,-1.215329 3.9375,-2.111328 0.192,0 0.44757,-0.223875 0.76757,-0.671875 0.32,-0.511999 0.60729,-1.056813 0.86329,-1.632812 0.31999,-0.64 0.57557,-1.246266 0.76757,-1.822266 0.192,-0.575999 0.28907,-0.960344 0.28907,-1.152344 0.128,-0.447999 0.1914,-0.737234 0.1914,-0.865234 0.064,-0.192 0.0957,-0.542688 0.0957,-1.054687 0.256,-1.023999 0.2243,-1.9214537 -0.0957,-2.6894537 -0.32,-0.831999 -0.83116,-1.503625 -1.53515,-2.015625 -0.704,-0.575999 -1.5361,-1.02375 -2.4961,-1.34375 -0.896,-0.319999 -1.82516,-0.512172 -2.78515,-0.576171 z m 236.44921,0 c -0.448,0 -0.9294,0.097062 -1.4414,0.289062 -0.512,0.192 -1.02316,0.447578 -1.53516,0.767578 -0.384,0.128 -0.80005,0.288469 -1.24805,0.480469 -0.44799,0.192 -0.92745,0.287109 -1.43945,0.287109 -1.088,0.192 -2.04886,0.639751 -2.88086,1.34375 -0.768,0.704 -1.47133,1.504392 -2.11133,2.4003907 -0.576,0.831999 -1.08911,1.695798 -1.5371,2.591797 -0.384,0.895999 -0.70299,1.632985 -0.95899,2.208984 -1.472,3.391997 -2.88061,6.623316 -4.22461,9.695313 -1.28,3.071997 -2.1755,6.335019 -2.6875,9.791015 l -1.05664,6.433594 c -0.128,0.895999 -0.35187,1.791501 -0.67187,2.6875 -0.32,0.895999 -0.54388,1.599329 -0.67188,2.111328 v 3.457031 c 0,0.959999 -0.0951,1.726735 -0.28711,2.302735 -0.128,0.575999 -0.38553,1.312985 -0.76953,2.208984 0,0.448 -0.0634,0.959157 -0.19141,1.535156 -0.064,0.512 -0.0957,1.441158 -0.0957,2.785157 l -0.28906,10.080078 c -0.512,0.447999 -0.83099,0.895751 -0.95899,1.343751 -0.064,0.384 -0.0957,0.83175 -0.0957,1.34375 -0.128,0.96 -0.19141,1.72869 -0.19141,2.30469 0.064,0.576 0.0303,1.34273 -0.0976,2.30273 -0.064,2.176 -0.48005,3.9036 -1.24805,5.18359 -0.768,1.216 -1.6318,2.24027 -2.5918,3.07227 -0.89599,0.768 -1.72809,1.50499 -2.49609,2.20898 -0.704,0.64 -1.05469,1.5038 -1.05469,2.5918 -0.064,0.704 0.12818,1.21516 0.57618,1.53516 0.44799,0.256 0.99086,0.44817 1.63085,0.57617 0.704,0.128 1.40929,0.19336 2.11329,0.19336 0.70399,0 1.31026,0.0317 1.82226,0.0957 0.384,0 0.80005,-0.16047 1.24805,-0.48047 0.512,-0.384 0.95975,-0.57617 1.34375,-0.57617 l 1.15234,0.57617 c 0.768,0.32 1.6318,0.48047 2.5918,0.48047 h 2.68945 c 0.384,0.128 1.08733,0.35188 2.11133,0.67188 1.088,0.32 1.88839,0.54387 2.40039,0.67187 0.192,0 0.47928,-0.06536 0.86328,-0.19336 0.448,-0.064 0.86405,-0.22251 1.24805,-0.47851 0.384,-0.192 0.70494,-0.48124 0.96094,-0.86524 0.32,-0.32 0.47851,-0.70239 0.47851,-1.15039 0.128,-1.728 -0.25439,-2.91273 -1.15039,-3.55273 -0.832,-0.704 -1.79286,-1.21711 -2.88086,-1.53711 -1.216,-0.384 -2.30367,-0.89516 -3.26367,-1.53516 -0.96,-0.64 -1.37605,-1.82473 -1.24805,-3.55273 v -2.87891 c 0.064,-0.192 0.12741,-0.57634 0.19141,-1.15234 0.128,-0.576 0.28847,-1.15252 0.48047,-1.72852 0.192,-0.576 0.44758,-1.08715 0.76758,-1.53515 0.32,-0.448 0.70434,-0.67188 1.15234,-0.67188 1.088,0.064 2.0152,0.51175 2.7832,1.34375 0.832,0.832 1.53728,1.79091 2.11328,2.87891 0.576,1.024 1.05546,2.11362 1.43946,3.26562 0.384,1.088 0.67128,1.9518 0.86328,2.5918 0.384,0.96 0.80005,2.07938 1.24805,3.35937 0.512,1.28 1.12022,2.49644 1.82421,3.64844 0.704,1.152 1.5361,2.14456 2.4961,2.97656 0.96,0.832 2.14473,1.24805 3.55273,1.24805 0.32,0.064 0.79946,-0.25694 1.43946,-0.96094 0.63999,-0.704 1.34332,-1.5995 2.11132,-2.6875 0.832,-1.088 1.6641,-2.27273 2.4961,-3.55273 0.832,-1.344 1.56898,-2.62385 2.20898,-3.83984 0.704,-1.216 1.28052,-2.30368 1.72852,-3.26368 0.448,-0.96 0.67187,-1.59992 0.67187,-1.91992 0,-0.128 0.0317,-0.35187 0.0957,-0.67187 0.064,-0.384 0.0957,-0.76835 0.0957,-1.15235 0,-0.384 -0.0634,-0.73664 -0.19141,-1.05664 -0.064,-0.32 -0.22447,-0.51217 -0.48047,-0.57617 h -0.86328 c -0.704,0 -1.28051,0.38434 -1.72851,1.15234 -0.448,0.768 -1.02452,1.34452 -1.72852,1.72852 -0.32,0.32 -0.60728,0.73605 -0.86328,1.24805 -0.256,0.512 -0.51158,0.99145 -0.76758,1.43945 -0.256,0.384 -0.54523,0.73664 -0.86523,1.05664 -0.256,0.256 -0.57499,0.35111 -0.95899,0.28711 -1.152,0 -2.17626,-0.47945 -3.07226,-1.43945 -0.832,-0.96 -1.53728,-2.07938 -2.11328,-3.35938 -0.576,-1.28 -1.02375,-2.55984 -1.34375,-3.83984 -0.256,-1.344 -0.38282,-2.399971 -0.38282,-3.167971 0.064,-0.64 0.35129,-1.440392 0.86329,-2.400391 0.57599,-1.023999 1.18421,-2.07997 1.82421,-3.167969 0.704,-1.087999 1.34393,-2.175673 1.91993,-3.263671 0.576,-1.151999 0.89693,-2.20797 0.96093,-3.167969 0,-0.192 -0.16047,-0.70511 -0.48047,-1.53711 -0.32,-0.831999 -0.76775,-1.695797 -1.34375,-2.591797 -0.512,-0.959999 -1.15192,-1.823797 -1.91992,-2.591796 -0.768,-0.768 -1.56839,-1.184047 -2.40039,-1.248047 -1.216,-0.064 -2.36903,0.256938 -3.45703,0.960937 -1.024,0.704 -1.98291,1.502439 -2.87891,2.398438 l -2.30468,2.304687 c -0.64,0.704 -1.15116,1.024938 -1.53516,0.960938 -0.256,0 -0.51353,-0.128766 -0.76953,-0.384766 -0.192,-0.32 -0.38222,-0.672641 -0.57422,-1.056641 -0.128,-0.383999 -0.22506,-0.768344 -0.28906,-1.152343 0,-0.448 0.0317,-0.798688 0.0957,-1.054688 0,-0.831999 0.16047,-1.729454 0.48047,-2.689453 0.384,-1.023999 0.83175,-2.175079 1.34375,-3.455078 v -1.919922 c 0.512,-2.111998 1.08852,-4.287346 1.72852,-6.527344 0.63999,-2.303997 1.50379,-4.576408 2.59179,-6.816406 l 0.76758,-1.824219 c 0.32,-1.535998 0.95992,-2.720735 1.91992,-3.552734 0.96,-0.831999 2.04768,-1.535329 3.26367,-2.111328 1.28,-0.576 2.59351,-1.120813 3.9375,-1.632813 1.408,-0.511999 2.71955,-1.215329 3.93555,-2.111328 0.192,0 0.44758,-0.223875 0.76758,-0.671875 0.32,-0.511999 0.60728,-1.056813 0.86328,-1.632812 0.32,-0.64 0.57753,-1.246266 0.76953,-1.822266 0.192,-0.575999 0.28711,-0.960344 0.28711,-1.152344 0.128,-0.447999 0.19141,-0.737234 0.19141,-0.865234 0.064,-0.192 0.0976,-0.542688 0.0976,-1.054687 0.256,-1.023999 0.22235,-1.9214537 -0.0976,-2.6894537 -0.32,-0.831999 -0.83116,-1.503625 -1.53516,-2.015625 -0.704,-0.575999 -1.53609,-1.02375 -2.49609,-1.34375 -0.896,-0.319999 -1.82321,-0.512172 -2.78321,-0.576171 z m 216.09571,1.05664 -9.1211,7.9667967 c -0.832,1.343999 -1.47192,2.39997 -1.91992,3.167969 -0.384,0.703999 -0.63958,1.536094 -0.76758,2.496094 l -0.76757,2.689453 c -0.32,1.407998 -0.60729,2.687845 -0.86329,3.839843 l -0.57617,3.072266 c -0.128,0.959999 -0.19336,1.663329 -0.19336,2.111328 v 0.767578 l -2.6875,10.945313 v 2.6875 c 0,2.239998 -0.19217,4.19147 -0.57617,5.855469 -0.32,1.663998 -0.48047,2.751672 -0.48047,3.263671 v 0.767579 2.689453 l -1.82422,9.023437 v 1.919922 l -0.86328,8.83203 v 2.88086 c -0.192,0.512 -0.38417,0.99145 -0.57617,1.43945 -0.32,0.832 -0.48047,1.50363 -0.48047,2.01563 0,0.704 0.19217,1.31222 0.57617,1.82422 0.448,0.448 0.89575,0.92745 1.34375,1.43945 0.128,0.384 0.28847,0.76834 0.48047,1.15234 0.192,0.32 0.28906,0.64094 0.28906,0.96094 0.256,0.512 0.41452,1.05486 0.47852,1.63086 0.064,0.576 0.12936,1.08911 0.19336,1.53711 0.064,0.512 0.19081,0.89439 0.38281,1.15039 0.192,0.32 0.54464,0.48047 1.05664,0.48047 l 2.6875,-0.76758 c 1.216,0 2.11346,-0.0634 2.68946,-0.1914 0.576,-0.128 1.05545,-0.32018 1.43945,-0.57618 0.384,-0.256 0.76834,-0.57693 1.15234,-0.96093 0.384,-0.384 0.92686,-0.80005 1.63086,-1.24805 0.32,-0.256 0.86482,-0.92763 1.63282,-2.01563 0.83199,-1.08799 1.69579,-2.20737 2.59179,-3.35937 1.024,-1.344 2.11167,-2.84772 3.26367,-4.51172 l 1.05664,-4.22461 c 0.256,-0.832 0.64035,-1.6958 1.15235,-2.5918 0.512,-0.89599 0.99145,-1.72809 1.43945,-2.49609 0.448,-0.768 0.83235,-1.43962 1.15234,-2.01562 0.384,-0.640005 0.57618,-1.056051 0.57618,-1.248051 v -2.88086 c 0.192,-0.639999 0.28711,-1.151156 0.28711,-1.535156 0.064,-0.383999 0.064,-0.704938 0,-0.960937 -0.064,-0.256 -0.12741,-0.448172 -0.19141,-0.576172 -0.064,-0.192 -0.0957,-0.415876 -0.0957,-0.671875 0,-0.128 0.0317,-0.288469 0.0957,-0.480469 0.128,-0.256 0.25481,-0.543282 0.38281,-0.863281 0.192,-0.192 0.28907,-0.639751 0.28907,-1.34375 0,-0.384 -0.0317,-0.800048 -0.0957,-1.248047 -0.064,-0.512 -0.16106,-0.991454 -0.28906,-1.439453 l -0.38281,-1.53711 0.76758,-1.919921 v -0.767579 c 0,-1.471998 -0.38435,-2.625032 -1.15235,-3.457031 -0.768,-0.895999 -1.88738,-1.34375 -3.35937,-1.34375 l -2.11328,0.769531 c -1.6,0 -2.91155,0.382392 -3.93555,1.150391 -1.024,0.767999 -1.8878,1.631798 -2.5918,2.591797 -0.704,0.959999 -1.28051,1.825751 -1.72851,2.59375 -0.448,0.767999 -0.89575,1.150391 -1.34375,1.150391 -0.192,0 -0.35247,-0.0317 -0.48047,-0.0957 -0.256,-0.127999 -0.38282,-0.351875 -0.38282,-0.671875 v -1.919921 c 0,-1.407999 0.19218,-2.687845 0.57618,-3.839844 0.384,-1.215999 0.80004,-2.335376 1.24804,-3.359375 0.512,-1.023999 0.95975,-1.984861 1.34375,-2.88086 0.384,-0.895999 0.57617,-1.791501 0.57617,-2.6875 l 1.05469,-3.457031 c 0,-0.511999 0.0337,-1.247032 0.0977,-2.207031 0.128,-1.023999 0.44698,-1.824391 0.95898,-2.400391 0.448,-0.767999 0.73528,-1.631798 0.86328,-2.591797 0.192,-1.023999 0.54465,-1.759031 1.05665,-2.207031 0,-0.639999 0.25557,-1.313579 0.76757,-2.017578 0.512,-0.767999 1.15193,-1.439626 1.91993,-2.015625 0.76799,-0.639999 1.56839,-1.151157 2.40039,-1.535156 0.89599,-0.384 1.69639,-0.576172 2.40039,-0.576172 h 1.05664 0.76758 c 1.53599,-0.384 2.81584,-0.99222 3.83984,-1.824219 1.024,-0.831999 1.85609,-1.759204 2.49609,-2.783203 0.64,-1.087999 1.08775,-2.177626 1.34375,-3.265625 0.256,-1.087999 0.38477,-2.110313 0.38477,-3.070312 0,-0.384 -0.16047,-0.8000477 -0.48047,-1.2480467 -0.256,-0.512 -0.64034,-0.993407 -1.15234,-1.441407 -0.448,-0.447999 -0.95916,-0.798687 -1.53516,-1.054687 -0.512,-0.32 -0.99341,-0.480469 -1.44141,-0.480469 h -1.53515 l -2.6875,0.767578 c -0.512,0 -1.02511,-0.128766 -1.53711,-0.384765 -0.448,-0.256 -0.92746,-0.382813 -1.43946,-0.382813 z m 35.13476,0.767578 c -1.472,0 -3.00742,0.447751 -4.60742,1.34375 -1.536,0.831999 -2.75244,1.9850327 -3.64844,3.4570317 -0.832,0.447999 -1.53532,1.022563 -2.11132,1.726562 -0.512,0.703999 -0.99146,1.472688 -1.43946,2.304688 -0.896,1.855998 -1.92026,3.583595 -3.07226,5.183593 -1.152,1.599999 -1.9841,3.264189 -2.4961,4.992188 -0.704,1.791998 -1.21515,3.584955 -1.53515,5.376953 -0.32,1.727998 -0.57753,3.455595 -0.76953,5.183594 -0.192,1.727998 -0.38418,3.487298 -0.57618,5.279296 -0.192,1.791999 -0.47928,3.616659 -0.86328,5.472657 v 3.455078 c 0,0.447999 -0.19217,1.056219 -0.57617,1.824219 -0.32,0.703999 -0.48047,1.248813 -0.48047,1.632812 0,2.943997 -0.0634,5.759268 -0.1914,8.447266 -0.128,2.687997 -0.28847,5.023813 -0.48047,7.007816 -0.192,1.91999 -0.35052,3.39201 -0.47852,4.41601 -0.128,0.96 -0.19336,1.18388 -0.19336,0.67188 v 1.91992 c 0,0.832 -0.19217,1.69775 -0.57617,2.59375 -0.32,0.896 -0.47852,1.7915 -0.47852,2.6875 v 6.14258 c 0,1.024 -0.0654,1.88975 -0.19336,2.59375 -0.064,0.704 -0.064,1.27856 0,1.72656 0.064,0.448 0.22447,0.76894 0.48047,0.96094 0.32,0.256 0.83116,0.38281 1.53516,0.38281 0.96,0 2.11303,-0.31899 3.45703,-0.95899 1.408,-0.57599 2.59274,-1.05545 3.55274,-1.43945 0.89599,-0.512 1.7915,-1.05681 2.6875,-1.63281 0.95999,-0.64 1.66332,-1.44039 2.11132,-2.40039 1.344,-1.344 2.39997,-2.65555 3.16797,-3.93555 0.832,-1.28 1.88797,-2.36767 3.16797,-3.26367 0.64,-0.448 1.31163,-1.08792 2.01563,-1.91992 0.704,-0.832 1.34392,-1.7275 1.91992,-2.6875 0.576,-0.96 1.0574,-1.88916 1.4414,-2.78516 0.384,-0.96 0.57618,-1.79209 0.57618,-2.49609 l -0.57618,-0.76758 c -1.21599,0 -2.46414,0.51116 -3.74414,1.53516 -1.27999,0.96 -2.52814,2.04962 -3.74414,3.26562 -0.576,0.512 -1.21592,1.08656 -1.91992,1.72656 -0.64,0.64 -1.27992,1.24822 -1.91992,1.82422 -0.64,0.576 -1.31163,1.05741 -2.01563,1.44141 -0.63999,0.384 -1.24821,0.57422 -1.82421,0.57422 -0.448,0 -0.76894,-0.41605 -0.96094,-1.24805 -0.128,-0.896 -0.19141,-1.53592 -0.19141,-1.91992 0.128,-1.984 0.35188,-3.87207 0.67188,-5.66406 0.32,-1.792003 0.63898,-3.45424 0.95898,-4.990238 0.32,-1.535999 0.54388,-2.881204 0.67188,-4.033203 0.192,-1.215999 0.22565,-2.27197 0.0977,-3.167969 l 1.34375,-7.775391 V 48.18244 c 0.128,-0.639999 0.25482,-1.248219 0.38282,-1.824219 0.12799,-0.511999 0.22506,-0.991453 0.28906,-1.439453 0.128,-0.448 0.1914,-0.768938 0.1914,-0.960937 0,-1.855999 0.28729,-3.839174 0.86328,-5.951172 0.64,-2.175998 1.24822,-3.935299 1.82422,-5.279297 0.256,-0.767999 0.35307,-1.504985 0.28907,-2.208985 0,-0.767999 0.25557,-1.631797 0.76757,-2.591796 0.384,-1.855999 1.27951,-3.199251 2.6875,-4.03125 1.472,-0.832 2.88062,-1.248047 4.22461,-1.248047 0.512,0 1.05682,0.126812 1.63282,0.382812 0.576,0.256 1.27933,0.384766 2.11132,0.384766 0.64,0 1.40869,-0.287282 2.30469,-0.863281 0.96,-0.64 1.8555,-1.376986 2.6875,-2.208985 0.832,-0.895999 1.53533,-1.85686 2.11133,-2.880859 0.576,-1.023999 0.86523,-1.982907 0.86523,-2.878906 v -1.824219 c 0,-1.471999 -0.25753,-2.7835477 -0.76953,-3.9355467 -0.448,-1.151999 -1.59908,-1.728516 -3.45507,-1.728516 z M 152.18816,21.49494 c -0.192,0 -0.51098,0.06341 -0.95898,0.191406 -0.384,0.064 -0.80005,0.161063 -1.24805,0.289063 -0.448,0.064 -0.89575,0.159109 -1.34375,0.287109 -0.384,0.064 -0.70494,0.0957 -0.96094,0.0957 -0.83199,1.215999 -1.53532,2.369032 -2.11132,3.457031 -0.576,1.087999 -0.86328,2.494658 -0.86328,4.222657 0,0.575999 -0.0654,1.249579 -0.19336,2.017578 -0.128,0.767999 0.0325,1.342563 0.48046,1.726562 0.512,0.959999 1.28069,1.760392 2.30469,2.400391 1.088,0.575999 2.07861,0.863281 2.97461,0.863281 0.64,0.128 1.18481,0.03289 1.63281,-0.287109 0.512,-0.384 0.92805,-0.831751 1.24805,-1.34375 0.384,-0.576 0.67128,-1.18422 0.86328,-1.824219 0.256,-0.639999 0.44817,-1.184813 0.57617,-1.632812 0,-0.832 0.12877,-1.503626 0.38477,-2.015626 0.256,-0.575999 0.38281,-1.055453 0.38281,-1.439453 0,-0.447999 -0.0634,-0.927453 -0.1914,-1.439453 -0.064,-0.511999 -0.0957,-1.02511 -0.0957,-1.537109 -0.512,-0.831999 -0.89634,-1.632392 -1.15234,-2.400391 -0.256,-0.767999 -0.83252,-1.310859 -1.72852,-1.630859 z m 171.45704,14.496094 -2.97657,1.054687 h -3.64843 -1.91993 c -0.192,0 -0.57634,0.06536 -1.15234,0.19336 l -1.53516,0.382812 c -0.704,0.192 -1.40733,0.352469 -2.11133,0.480469 l -3.64843,2.111328 c -1.216,0.703999 -2.36903,1.472688 -3.45703,2.304687 -1.024,0.832 -1.9195,1.727501 -2.6875,2.6875 -0.768,0.959999 -1.24746,2.049627 -1.43946,3.265625 -0.32,0.32 -0.70434,0.831157 -1.15234,1.535157 -0.384,0.703999 -0.76834,1.439032 -1.15234,2.207031 -0.448,0.895999 -0.92746,1.888563 -1.43946,2.976562 v 1.824219 l -1.05664,2.976563 c 0.128,0.383999 0.28847,0.734687 0.48047,1.054687 l 0.38477,0.960938 c 0.128,0.255999 0.1914,0.479875 0.1914,0.671875 v 2.111328 c 0,0.383999 -0.0634,0.89711 -0.1914,1.537109 -0.128,0.639999 -0.25677,1.248219 -0.38477,1.824219 -0.192,0.703999 -0.35247,1.439031 -0.48047,2.207033 0,0.448 0.16047,0.99281 0.48047,1.63281 0.192,0.32 0.38417,0.67069 0.57617,1.05469 v 2.97656 c 0,0.64 0.12877,1.60086 0.38477,2.88086 0.32,1.28 0.67069,2.59155 1.05469,3.93555 0.448,1.28 0.86404,2.46473 1.24804,3.55273 0.448,1.024 0.80064,1.63027 1.05664,1.82227 0.192,0.512 0.70316,1.12022 1.53516,1.82422 0.832,0.63999 1.76116,1.24821 2.78516,1.82421 1.02399,0.64 1.9829,1.18482 2.8789,1.63282 0.96,0.448 1.69699,0.67187 2.20899,0.67187 0.256,0 0.70375,-0.0634 1.34375,-0.1914 0.64,-0.128 1.31162,-0.25677 2.01562,-0.38477 0.768,-0.192 1.6001,-0.38417 2.4961,-0.57617 h 0.76757 c 0.96,0 2.17644,-0.57652 3.64844,-1.72852 1.536,-1.152 3.00802,-2.52695 4.41602,-4.12695 1.47199,-1.664 2.72014,-3.3916 3.74414,-5.18359 1.024,-1.856 1.53515,-3.48849 1.53515,-4.89649 0,-0.384 -0.19022,-0.83175 -0.57422,-1.34375 -0.192,-0.256 -0.35246,-0.44817 -0.48046,-0.57617 -0.384,0 -0.83175,0.06341 -1.34375,0.19141 -0.512,0.128 -0.95975,0.35187 -1.34375,0.67187 -1.28,0.96 -2.62521,2.27155 -4.03321,3.93555 -1.088,1.088 -2.27273,1.82498 -3.55273,2.20898 -1.28,0.32 -2.65496,0.48047 -4.12696,0.48047 l -1.91992,0.76758 c -1.408,0 -2.59273,-0.73699 -3.55273,-2.20899 -0.896,-1.53599 -1.63103,-3.26359 -2.20703,-5.18359 -0.576,-1.984 -0.99205,-3.90377 -1.24805,-5.75976 -0.256,-1.856004 -0.38477,-3.167553 -0.38477,-3.935552 v -3.648437 -2.6875 c 0,-0.768 0.32094,-1.82397 0.96094,-3.167969 0.704,-1.407999 1.5995,-2.784908 2.6875,-4.128906 1.088,-1.343999 2.30444,-2.495079 3.64844,-3.455078 1.344,-1.023999 2.71895,-1.53711 4.12695,-1.53711 1.344,0 2.56044,0.320938 3.64844,0.960938 1.088,0.575999 2.11227,0.863281 3.07227,0.863281 1.47199,0 2.65673,-0.60822 3.55273,-1.824219 0.96,-1.215999 1.63163,-2.559251 2.01563,-4.03125 v -1.824219 c 0,-0.447999 -0.0317,-0.992813 -0.0957,-1.632812 0,-0.703999 -0.12876,-1.375626 -0.38476,-2.015625 -0.256,-0.639999 -0.64035,-1.151157 -1.15235,-1.535156 -0.448,-0.448 -1.15133,-0.671875 -2.11132,-0.671875 z m 196.22265,0 c -0.704,0.127999 -1.37562,0.254812 -2.01562,0.382812 -0.512,0.128 -1.02316,0.225063 -1.53516,0.289063 -0.512,0.064 -0.86464,0.0957 -1.05664,0.0957 h -9.88867 L 489.1491,37.52619 c -0.512,0.192 -0.95975,0.415875 -1.34375,0.671875 -0.32,0.192 -0.64094,0.415875 -0.96094,0.671875 -0.256,0.192 -0.38281,0.384172 -0.38281,0.576172 0,0.959999 0.19022,1.728688 0.57422,2.304687 0.384,0.576 0.86541,1.023751 1.44141,1.34375 0.64,0.32 1.31162,0.543875 2.01562,0.671875 0.704,0.128 1.40733,0.191407 2.11133,0.191407 h 3.74414 c 0.832,0.191999 1.44022,0.608047 1.82422,1.248046 0.448,0.64 0.73528,1.376986 0.86328,2.208985 0.192,0.767999 0.32077,1.600094 0.38477,2.496093 0.064,0.896 0.19276,1.662736 0.38476,2.302735 l -0.76953,6.912109 v 15.552734 10.08008 c 0,0.832 -0.44775,1.63239 -1.34375,2.40039 -0.832,0.704 -1.88797,1.05469 -3.16797,1.05469 h -1.91992 c -0.512,-0.064 -0.99145,-0.12741 -1.43945,-0.19141 l -1.15235,-0.19141 c -0.384,-0.064 -0.67128,-0.0957 -0.86328,-0.0957 -0.384,0.192 -0.70494,0.41588 -0.96094,0.67188 -0.256,0.192 -0.47987,0.38417 -0.67187,0.57617 -0.192,0.192 -0.28711,0.38417 -0.28711,0.57617 0,0.704 0.47945,1.24686 1.43945,1.63086 0.96,0.448 2.01597,0.76894 3.16797,0.96094 1.216,0.256 2.33538,0.41451 3.35938,0.47851 1.088,0.128 1.72792,0.19336 1.91992,0.19336 h 3.74414 1.63281 4.51172 2.11133 l 5.37695,0.76758 h 3.45508 c 0.384,0 0.80005,-0.16047 1.24805,-0.48047 0.448,-0.32 0.67187,-0.70434 0.67187,-1.15234 0,-0.96 -0.51116,-1.66333 -1.53515,-2.11133 -0.96,-0.512 -2.01597,-1.02316 -3.16797,-1.53516 -1.152,-0.512 -2.23968,-1.15192 -3.26368,-1.91992 -0.95999,-0.768 -1.43945,-1.92103 -1.43945,-3.45703 v -1.91992 l -1.05664,-4.51172 c 0,-0.448 0.0317,-1.02452 0.0957,-1.72852 0.064,-0.704 0.19277,-1.37562 0.38477,-2.01562 0.256,-0.64 0.57498,-1.18481 0.95898,-1.63281 0.448,-0.512 1.05622,-0.76758 1.82422,-0.76758 0.896,0 1.53592,0.22387 1.91992,0.67187 0.448,0.448 1.11963,0.92941 2.01563,1.44141 0.448,0.384 0.86405,0.92686 1.24805,1.63086 0.384,0.64 0.76834,1.37698 1.15234,2.20898 0.448,0.768 0.92745,1.6001 1.43945,2.4961 0.576,0.896 1.24958,1.8232 2.01758,2.7832 0.576,0.576 1.18227,1.21592 1.82227,1.91992 l 2.01757,2.01563 c 0.704,0.64 1.34393,1.21651 1.91993,1.72851 0.576,0.448 1.05545,0.76699 1.43945,0.95899 0.96,0.576 1.79209,1.18422 2.49609,1.82422 0.704,0.63999 1.92044,1.47209 3.64844,2.49609 0.448,0.128 1.02256,0.19336 1.72656,0.19336 0.768,0 1.37622,0.19217 1.82422,0.57617 0.128,0.064 0.54405,0.0957 1.24805,0.0957 0.704,0.064 1.47269,0.0323 2.30469,-0.0957 0.896,-0.064 1.69639,-0.25617 2.40039,-0.57617 0.768,-0.32 1.24745,-0.83311 1.43945,-1.53711 0.128,-0.512 0.1597,-0.83099 0.0957,-0.95899 0,-0.19199 -0.19217,-0.48123 -0.57617,-0.86523 -0.448,-0.448 -1.08792,-0.83234 -1.91992,-1.15234 -0.832,-0.384 -1.44022,-0.63958 -1.82422,-0.76758 -1.024,-0.192 -1.9195,-0.57635 -2.6875,-1.15235 -0.768,-0.63999 -1.50303,-1.34332 -2.20703,-2.11132 l -1.91992,-2.30469 c -0.576,-0.768 -1.24958,-1.40792 -2.01758,-1.91992 -0.384,-0.192 -0.89516,-0.73486 -1.53516,-1.63086 -0.576,-0.896 -1.15251,-1.92027 -1.72851,-3.07227 -0.576,-1.152 -1.05546,-2.30503 -1.43946,-3.45703 -0.38399,-1.152 -0.57617,-2.0792 -0.57617,-2.783202 0,-0.639999 0.12877,-1.151157 0.38477,-1.535156 0.32,-0.384 0.67069,-0.673235 1.05469,-0.865234 l 1.15234,-0.767579 c 0.448,-0.255999 0.80064,-0.608641 1.05664,-1.05664 0.384,-0.64 0.83175,-1.438439 1.34375,-2.398438 0.576,-1.023999 1.08716,-2.07997 1.53516,-3.167969 0.512,-1.087998 0.92804,-2.177626 1.24804,-3.265624 0.32,-1.087999 0.48047,-2.078611 0.48047,-2.97461 0,-0.192 -0.0634,-0.608047 -0.1914,-1.248047 -0.128,-0.639999 -0.28847,-1.311625 -0.48047,-2.015625 -0.192,-0.767999 -0.41588,-1.409875 -0.67188,-1.921875 -0.256,-0.575999 -0.51158,-0.863281 -0.76758,-0.863281 -0.128,-0.703999 -0.38553,-1.312219 -0.76953,-1.824219 -0.384,-0.511999 -0.76639,-0.991453 -1.15039,-1.439453 -1.088,-0.767999 -1.88839,-1.921033 -2.40039,-3.457031 -0.896,-0.831999 -1.92026,-1.727501 -3.07226,-2.6875 -1.088,-1.023999 -2.27274,-1.535156 -3.55274,-1.535156 z M 23.356131,37.045721 c -0.255999,0 -0.638391,0.03366 -1.15039,0.09766 -0.448,0.064 -0.929407,0.15911 -1.441406,0.28711 l -1.919922,0.384765 H 6.2682406 c -0.9599991,0 -1.6633286,0.350689 -2.1113281,1.054688 -0.3839997,0.703999 -0.5761719,1.343922 -0.5761719,1.919922 0,0.895999 0.3209381,1.632985 0.9609375,2.208984 0.7039993,0.576 1.5677979,1.311032 2.5917968,2.207031 1.0239988,0.895999 2.0799698,2.112439 3.1679691,3.648438 1.151999,1.471998 2.20797,3.58394 3.167969,6.335937 0,0.128 0.192172,0.575751 0.576172,1.34375 0.447999,0.704 0.864047,1.409282 1.248046,2.113282 0.448,0.831999 0.830391,1.598735 1.150391,2.302734 0.32,0.639999 0.480469,1.024344 0.480469,1.152344 v 2.6875 c 0.192,0.703999 0.415875,1.377579 0.671875,2.017578 0.192,0.511999 0.384172,1.05486 0.576172,1.630859 0.192,0.512 0.415875,0.896344 0.671875,1.152344 1.279998,2.112 2.304266,4.35271 3.072265,6.7207 0.832,2.304 1.919674,4.86369 3.263672,7.67969 0.512,0.384 0.801235,0.83175 0.865235,1.34375 0.127999,0.512 0.191406,1.21533 0.191406,2.11133 0.128,0.32 0.256766,0.67264 0.384766,1.05664 0.127999,0.384 0.191406,0.83175 0.191406,1.34375 0.128,0.384 0.254812,0.83175 0.382812,1.34375 0.192,0.448 0.417829,0.80064 0.673828,1.05664 0.512,0.832 0.991454,1.63239 1.439454,2.40039 0.447999,0.832 0.864047,1.47192 1.248046,1.91992 0.895999,0 1.631032,-0.0317 2.207032,-0.0957 0.639999,-0.064 1.408688,-0.32153 2.304687,-0.76953 0.384,-0.384 0.607875,-0.83175 0.671875,-1.34375 0.064,-0.512 0.0957,-1.02316 0.0957,-1.53516 0,-0.128 0.09706,-0.48064 0.289063,-1.05664 0.192,-0.576 0.415875,-1.18422 0.671875,-1.82422 l 0.958984,-2.49609 c 0,-0.896 0.384345,-2.39972 1.152344,-4.51172 0.767999,-2.112 1.631798,-4.28735 2.591797,-6.52734 1.087999,-2.56 2.336142,-5.37722 3.74414,-8.449222 0.384,-1.343999 0.768345,-2.623845 1.152344,-3.839844 0.448,-1.279999 1.119626,-2.399376 2.015625,-3.359375 0.064,-0.128 0.127406,-0.415282 0.191406,-0.863281 0.128,-0.448 0.225063,-0.895751 0.289063,-1.34375 0.128,-0.512 0.223109,-0.928048 0.287109,-1.248047 0.128,-0.32 0.225063,-0.417063 0.289063,-0.289063 0,0.064 0.0317,0.351282 0.0957,0.863281 0.128,0.448 0.223109,0.929407 0.287109,1.441407 0.128,0.511999 0.225063,0.991453 0.289063,1.439453 0.128,0.447999 0.191406,0.703578 0.191406,0.767578 0.256,0.575999 0.448172,1.184219 0.576172,1.824219 0.128,0.639999 0.191406,1.119453 0.191406,1.439453 l 1.632813,2.689453 c 0,0.192 0.0317,0.479282 0.0957,0.863281 0.064,0.384 0.127406,0.800047 0.191406,1.248047 0.128,0.448 0.225063,0.89575 0.289063,1.34375 0.127999,0.448 0.191406,0.80064 0.191406,1.05664 0.831999,1.152 1.471922,2.17627 1.919922,3.07227 0.511999,0.832 0.928047,1.69579 1.248046,2.59179 0.384,0.832 0.736641,1.75921 1.056641,2.78321 0.384,0.96 0.92686,2.14473 1.630859,3.55273 0.512,0.384 0.801235,0.83175 0.865235,1.34375 0.128,0.512 0.191406,1.21533 0.191406,2.11133 0.128,0.32 0.288469,0.67264 0.480469,1.05664 0.256,0.384 0.382812,0.83175 0.382812,1.34375 0.128,0.384 0.256766,0.83175 0.384766,1.34375 0.128,0.448 0.351875,0.80064 0.671875,1.05664 0.384,0.832 0.704938,1.34316 0.960937,1.53516 l 1.150391,1.15234 c 0.32,0 0.543875,0.09706 0.671875,0.28906 0.192,0.192 0.512938,0.35052 0.960938,0.47852 0.191999,0.576 0.544641,0.86523 1.05664,0.86523 0.64,0 1.151157,-0.16047 1.535156,-0.48047 0.384,-0.256 0.639579,-0.60864 0.767579,-1.05664 0.191999,-0.384 0.289062,-0.80004 0.289062,-1.24804 0.064,-0.384 0.0957,-0.70299 0.0957,-0.95899 0,-0.128 0.0317,-0.44894 0.0957,-0.96094 l 0.384766,-1.53515 0.576172,-2.11328 c 0,-0.448 0.09511,-1.08793 0.287109,-1.91993 0.256,-0.83199 0.543282,-1.7592 0.863282,-2.7832 0.319999,-1.088 0.704344,-2.23908 1.152343,-3.45508 0.448,-1.27999 0.929407,-2.52814 1.441407,-3.74414 1.087998,-2.87999 2.334188,-6.0162 3.742187,-9.4082 0.511999,-0.767999 0.864641,-1.407922 1.056641,-1.919922 0.255999,-0.575999 0.416468,-1.120813 0.480468,-1.632812 0.128,-0.576 0.22311,-1.11886 0.28711,-1.63086 0.064,-0.575999 0.256172,-1.249579 0.576172,-2.017578 0.511999,-0.383999 1.02511,-0.83175 1.537109,-1.34375 0.575999,-0.511999 0.863281,-1.05486 0.863281,-1.630859 l 2.591797,-5.56836 0.865235,-3.457031 c 0.191999,-0.767999 0.510984,-1.342563 0.958984,-1.726562 0.511999,-0.384 1.056813,-0.673235 1.632812,-0.865235 0.64,-0.192 1.311626,-0.318812 2.015625,-0.382812 l 2.302735,-0.19336 1.345703,-0.191406 c 0.511999,-0.064 0.95975,-0.224469 1.34375,-0.480469 0.383999,-0.255999 0.702985,-0.606688 0.958984,-1.054687 0.256,-0.448 0.384766,-1.121579 0.384766,-2.017578 0,-1.087999 -0.255579,-1.854735 -0.767578,-2.302735 -0.448,-0.447999 -1.087923,-0.671875 -1.919922,-0.671875 H 90.07682 c -0.768,0 -1.312813,0.06341 -1.632813,0.191407 -0.32,0.064 -0.638985,0.159109 -0.958984,0.287109 -0.256,0.064 -0.576938,0.129359 -0.960938,0.193359 -0.383999,0.064 -0.992219,0.0957 -1.824219,0.0957 H 80.47721 c -0.511999,-0.384 -0.896344,-0.607876 -1.152344,-0.671876 -0.255999,-0.064 -0.864219,-0.0957 -1.824218,-0.0957 -0.192,0 -0.544641,0.06341 -1.056641,0.191407 -0.447999,0.064 -0.959157,0.224469 -1.535156,0.480468 -0.512,0.256 -0.959751,0.574985 -1.34375,0.958985 -0.384,0.319999 -0.576172,0.76775 -0.576172,1.34375 0,0.895999 0.223875,1.504219 0.671875,1.824219 0.511999,0.255999 1.023157,0.448172 1.535156,0.576171 0.576,0.128 1.08911,0.320173 1.53711,0.576172 0.511999,0.192 0.767578,0.608048 0.767578,1.248047 0,1.279999 -0.447751,3.328534 -1.34375,6.144531 -0.128,0.704 -0.415282,1.439032 -0.863282,2.207032 -0.383999,0.767999 -0.704937,1.536688 -0.960937,2.304687 -0.703999,1.727998 -1.375626,3.392189 -2.015625,4.992188 -0.639999,1.535998 -1.311626,2.623672 -2.015625,3.263672 0,0.191999 -0.0317,0.544641 -0.0957,1.05664 -0.064,0.512 -0.161063,1.086563 -0.289063,1.726563 -0.127999,0.575999 -0.351875,1.184219 -0.671875,1.824218 -0.255999,0.576 -0.608641,1.089111 -1.05664,1.537111 -0.128,0.064 -0.286516,0.35128 -0.478516,0.86328 -0.128,0.448 -0.288469,0.92745 -0.480469,1.43945 l -0.384765,1.53711 c -0.128,0.448 -0.22311,0.70358 -0.28711,0.76758 -0.064,0.064 -0.224469,-0.22328 -0.480468,-0.86328 -0.192,-0.64 -0.415876,-1.34528 -0.671875,-2.11328 -0.192,-0.768 -0.415876,-1.50303 -0.671875,-2.207033 -0.256,-0.703999 -0.448172,-1.120047 -0.576172,-1.248047 -0.576,-0.767999 -1.152516,-1.855673 -1.728516,-3.263672 -0.575999,-1.471998 -1.087157,-2.880611 -1.535156,-4.224609 -0.448,-1.407999 -0.832344,-2.656142 -1.152344,-3.744141 -0.256,-1.087999 -0.384766,-1.696219 -0.384766,-1.824219 10e-7,-1.087999 -0.192172,-2.015204 -0.576171,-2.783203 -0.384,-0.831999 -0.734688,-1.503625 -1.054688,-2.015625 -0.831999,-1.471998 -1.248047,-3.167892 -1.248047,-5.08789 0.64,-0.448 1.440392,-0.768938 2.400391,-0.960938 0.959999,-0.256 1.887204,-0.479875 2.783203,-0.671875 0.959999,-0.256 1.760391,-0.576938 2.400391,-0.960937 0.639999,-0.384 0.958984,-1.023923 0.958984,-1.919922 0,-1.087999 -0.255579,-1.854735 -0.767578,-2.302735 -0.512,-0.447999 -1.151923,-0.671875 -1.919922,-0.671875 H 57.72526 c -0.895999,0 -1.504219,0.06341 -1.824219,0.191407 -0.255999,0.064 -0.479875,0.159109 -0.671875,0.287109 -0.191999,0.064 -0.481234,0.129359 -0.865234,0.193359 -0.32,0.064 -1.055032,0.0957 -2.207031,0.0957 h -4.511719 c -0.831999,-0.384 -1.376813,-0.607876 -1.632813,-0.671876 -0.191999,-0.064 -0.542688,-0.0957 -1.054687,-0.0957 -0.192,0 -0.544641,0.06341 -1.056641,0.191407 -0.447999,0.064 -0.927453,0.224469 -1.439453,0.480468 -0.447999,0.256 -0.864047,0.574985 -1.248047,0.958985 -0.319999,0.319999 -0.480468,0.76775 -0.480468,1.34375 0,0.895999 0.223875,1.504219 0.671875,1.824219 0.447999,0.255999 0.927453,0.448172 1.439453,0.576171 0.511999,0.128 0.991453,0.320173 1.439453,0.576172 0.447999,0.192 0.673828,0.608048 0.673828,1.248047 0,1.087999 -0.352641,2.367845 -1.056641,3.839844 -0.639999,1.471998 -1.343329,3.136189 -2.111328,4.992187 -0.511999,1.023999 -0.993406,2.07997 -1.441406,3.167969 -0.384,1.023999 -0.800047,2.016564 -1.248047,2.976563 -0.383999,0.959999 -0.800047,1.823797 -1.248047,2.591797 -0.383999,0.703999 -0.768344,1.246859 -1.152344,1.630859 10e-7,0.128 -0.06341,0.448938 -0.191406,0.960937 -0.064,0.448 -0.190812,0.959157 -0.382812,1.535157 -0.192,0.575999 -0.415876,1.184219 -0.671875,1.824218 -0.256,0.576 -0.545235,1.089111 -0.865235,1.537111 -0.127999,0.064 -0.288469,0.35128 -0.480468,0.86328 -0.128,0.512 -0.254813,1.05681 -0.382813,1.63281 -0.128,0.576 -0.256766,1.11886 -0.384765,1.63086 -0.128,0.448 -0.254813,0.67188 -0.382813,0.67188 -0.128,0 -0.288469,-0.22388 -0.480469,-0.67188 -0.128,-0.512 -0.288469,-1.05486 -0.480468,-1.63086 -0.192,-0.576 -0.384173,-1.12081 -0.576172,-1.63281 -0.128,-0.576 -0.254813,-0.92864 -0.382813,-1.05664 l -0.384765,-1.343751 c -0.128,-0.511999 -0.351876,-0.95975 -0.671876,-1.34375 -0.447999,-0.831999 -0.89575,-1.759204 -1.34375,-2.783203 -0.447999,-1.023999 -0.864047,-1.98486 -1.248046,-2.880859 -0.32,-0.959999 -0.609235,-1.760391 -0.865235,-2.400391 -0.192,-0.703999 -0.287109,-1.120047 -0.287109,-1.248047 0,-0.511999 -0.160469,-1.118266 -0.480469,-1.822265 -0.256,-0.704 -0.543281,-1.409282 -0.863281,-2.113282 l -1.248047,-2.496093 c 0,-0.512 -0.192172,-1.023157 -0.576172,-1.535157 -0.32,-0.575999 -0.672641,-1.152516 -1.056641,-1.728515 -0.511999,-0.639999 -0.862687,-1.18286 -1.054687,-1.630859 -0.192,-0.512 -0.289062,-1.02511 -0.289063,-1.53711 0,-0.639999 0.416048,-1.119453 1.248047,-1.439453 0.895999,-0.32 1.856861,-0.609235 2.88086,-0.865234 1.023999,-0.256 1.951204,-0.574985 2.783203,-0.958985 0.895999,-0.447999 1.34375,-1.151329 1.34375,-2.111328 0,-0.895999 -0.255579,-1.440813 -0.767578,-1.632812 -0.448,-0.256 -1.087923,-0.576938 -1.919922,-0.960938 z m 156.865239,7.681641 c -0.512,0 -1.31239,0.0317 -2.40039,0.0957 -1.088,0.064 -1.88839,0.319578 -2.40039,0.767578 -0.448,0.128 -0.89575,0.448938 -1.34375,0.960938 -0.384,0.447999 -0.83175,0.927453 -1.34375,1.439453 -0.384,0.511999 -0.83175,1.05486 -1.34375,1.630859 -0.448,0.575999 -0.89575,0.992047 -1.34375,1.248047 -0.896,0.192 -1.7281,0.673407 -2.4961,1.441406 -0.768,0.703999 -1.47328,1.536095 -2.11328,2.496094 -0.64,0.959999 -1.21456,2.01597 -1.72656,3.167969 -0.512,1.151998 -0.89635,2.271376 -1.15235,3.359375 v 1.05664 c 0,0.959999 0.41605,2.174486 1.24805,3.646485 0.832,1.471998 1.75921,3.041078 2.7832,4.705074 1.024,1.6 1.95316,3.19883 2.78516,4.79883 0.832,1.536 1.24805,2.8495 1.24805,3.9375 0,0.448 -0.0971,0.99086 -0.28906,1.63086 -0.192,0.576 -0.47929,1.15252 -0.86329,1.72852 -0.384,0.512 -0.8654,0.95975 -1.4414,1.34375 -0.512,0.384 -1.08657,0.57617 -1.72657,0.57617 -0.95999,0 -1.82379,-0.12877 -2.59179,-0.38477 -0.768,-0.32 -1.47328,-0.63898 -2.11328,-0.95898 -0.576,-0.32 -1.08716,-0.60728 -1.53516,-0.86328 -0.448,-0.32 -0.76894,-0.48047 -0.96094,-0.48047 -0.704,0 -1.53609,0.35069 -2.49609,1.05469 -0.96,0.704 -1.8555,1.50439 -2.6875,2.40039 -0.896,0.896 -1.63103,1.82515 -2.20703,2.78515 -0.576,0.96 -0.86524,1.66333 -0.86524,2.11133 0,1.728 0.89746,2.5918 2.68946,2.5918 h 2.11133 0.57617 c 0.704,-0.128 1.37562,-0.25677 2.01562,-0.38477 0.512,-0.128 1.02316,-0.22311 1.53516,-0.28711 0.512,-0.064 0.92805,-0.0957 1.24805,-0.0957 h 3.45703 c 0.832,0 1.50362,-0.06341 2.01562,-0.19141 0.576,-0.064 1.15252,-0.25617 1.72852,-0.57617 0.576,-0.256 1.24762,-0.60864 2.01562,-1.05664 0.768,-0.512 1.85568,-1.15192 3.26367,-1.91992 1.792,-1.344 3.26402,-2.87942 4.41602,-4.60742 1.152,-1.792 1.72851,-3.55325 1.72852,-5.28125 0,-1.984 -0.19218,-3.775 -0.57618,-5.375 -0.32,-1.6 -0.73604,-3.04031 -1.24804,-4.320315 -0.512,-1.279999 -1.08852,-2.399376 -1.72852,-3.359375 -0.576,-1.023999 -1.08716,-1.98486 -1.53516,-2.880859 -0.384,-0.576 -0.70493,-1.215923 -0.96093,-1.919922 -0.256,-0.704 -0.38282,-1.439032 -0.38282,-2.207031 0,-0.768 0.12682,-1.504986 0.38282,-2.208985 0.256,-0.767999 0.67204,-1.439625 1.24804,-2.015625 0.384,-0.447999 1.1844,-0.864047 2.40039,-1.248047 l 3.83985,-1.152343 c 1.28,-0.448 2.43303,-0.895751 3.45703,-1.34375 1.024,-0.512 1.53516,-1.12022 1.53516,-1.824219 0,-0.895999 -0.38435,-1.791501 -1.15235,-2.6875 -0.768,-0.895999 -1.6318,-1.34375 -2.59179,-1.34375 z m 396.38281,0 -1.82422,0.863281 h -1.63086 -2.6875 c -0.512,0.384 -1.08852,0.800047 -1.72851,1.248047 -0.576,0.383999 -1.05546,0.576172 -1.43946,0.576172 -0.96,0.511999 -1.82575,0.864641 -2.59375,1.05664 -0.768,0.128 -1.53473,0.351876 -2.30273,0.671875 -0.768,0.256 -1.53669,0.638392 -2.30469,1.150391 -0.768,0.511999 -1.56839,1.344095 -2.40039,2.496094 -1.728,2.495997 -3.519,4.607939 -5.375,6.335937 -0.448,0.512 -0.89575,1.185579 -1.34375,2.017578 -0.384,0.768 -0.73664,1.566439 -1.05664,2.398438 -0.32,0.831999 -0.57558,1.600688 -0.76758,2.304687 -0.192,0.704 -0.28906,1.151751 -0.28906,1.34375 l -1.34375,11.232421 0.28906,6.91211 c 0,0.384 0.0634,1.02392 0.19141,1.91992 0.192,0.832 0.44758,1.6958 0.76758,2.5918 0.32,0.832 0.76775,1.56898 1.34375,2.20898 0.576,0.64 1.31298,0.95899 2.20898,0.95899 0.448,0 0.95916,-0.19217 1.53516,-0.57617 0.576,-0.32 1.08911,-0.70435 1.53711,-1.15235 0.512,-0.448 0.95975,-0.89575 1.34375,-1.34375 0.448,-0.512 0.76698,-0.89634 0.95898,-1.15234 0.64,-0.64 1.47209,-1.69597 2.49609,-3.16797 1.024,-1.472 2.01657,-2.91036 2.97657,-4.31836 1.024,-1.472 1.9195,-2.7538 2.6875,-3.8418 0.768,-1.152 1.2494,-1.72656 1.4414,-1.72656 0.192,0 0.41588,0.0317 0.67188,0.0957 0.448,0.128 0.67187,0.35188 0.67187,0.67188 v 1.91992 3.45508 c 0,0.896 -0.0971,1.82516 -0.28906,2.78516 -0.192,0.95999 -0.38417,1.98426 -0.57617,3.07226 -0.192,1.024 -0.28711,2.11167 -0.28711,3.26367 0,1.088 0.19217,2.20738 0.57617,3.35938 0.32,0.704 0.73605,1.05664 1.24805,1.05664 0.576,0.064 1.08715,-0.09647 1.53515,-0.48047 0.512,-0.32 0.92805,-0.79945 1.24805,-1.43945 0.384,-0.576 0.57617,-1.15252 0.57617,-1.72852 l 2.11133,-2.97656 c 0.768,-1.152 1.56839,-2.17431 2.40039,-3.07031 l 2.5918,-2.59375 c 0.832,-0.896 1.60069,-1.7915 2.30469,-2.6875 0.70399,-0.96 1.28051,-2.07938 1.72851,-3.35938 0.256,-0.256 0.51158,-0.64034 0.76758,-1.15234 l 0.38477,-0.76758 c 0,-0.384 -0.12877,-0.73664 -0.38477,-1.05664 -0.256,-0.32 -0.57694,-0.48047 -0.96094,-0.48047 -0.576,0.576 -1.15056,1.12081 -1.72656,1.63281 -0.512,0.448 -1.02511,0.92746 -1.53711,1.43946 -0.512,0.448 -0.95975,0.83234 -1.34375,1.15234 l -1.34375,2.11133 c -0.448,0 -0.80064,-0.15852 -1.05664,-0.47852 -0.256,-0.384 -0.44817,-0.80005 -0.57617,-1.24805 -0.064,-0.51199 -0.12741,-0.9934 -0.19141,-1.4414 v -1.05469 -3.74414 l 0.28906,-5.08789 v -1.824219 c 0,-0.895999 0.25558,-1.535922 0.76758,-1.919922 0.384,-0.895999 0.60788,-1.601281 0.67188,-2.113281 0.064,-0.575999 0.0957,-1.11886 0.0957,-1.630859 0.192,-0.64 0.44758,-1.503798 0.76758,-2.591797 0.32,-1.087999 0.60923,-2.14397 0.86523,-3.167969 0.32,-1.087999 0.57558,-2.04886 0.76758,-2.880859 0.192,-0.895999 0.28711,-1.472516 0.28711,-1.728516 0,-1.343999 -0.28728,-2.399969 -0.86328,-3.167969 -0.576,-0.767999 -1.53686,-1.15039 -2.88086,-1.15039 z m 209.28125,0 c -0.512,0 -1.31239,0.0317 -2.40039,0.0957 -1.088,0.064 -1.88839,0.319578 -2.40039,0.767578 -0.448,0.128 -0.89575,0.448938 -1.34375,0.960938 -0.384,0.447999 -0.83175,0.927453 -1.34375,1.439453 -0.384,0.511999 -0.83175,1.05486 -1.34375,1.630859 -0.448,0.575999 -0.89575,0.992047 -1.34375,1.248047 -0.896,0.192 -1.7281,0.673407 -2.4961,1.441406 -0.76799,0.703999 -1.47328,1.536095 -2.11328,2.496094 -0.64,0.959999 -1.21456,2.01597 -1.72656,3.167969 -0.512,1.151998 -0.89634,2.271376 -1.15234,3.359375 v 1.05664 c 0,0.959999 0.41604,2.174486 1.24804,3.646485 0.832,1.471998 1.75921,3.041078 2.78321,4.705074 1.024,1.6 1.95315,3.19883 2.78515,4.79883 0.832,1.536 1.2461,2.8495 1.2461,3.9375 0,0.448 -0.0951,0.99086 -0.28711,1.63086 -0.192,0.576 -0.47928,1.15252 -0.86328,1.72852 -0.384,0.512 -0.86541,0.95975 -1.44141,1.34375 -0.512,0.384 -1.08656,0.57617 -1.72656,0.57617 -0.96,0 -1.8238,-0.12877 -2.5918,-0.38477 -0.768,-0.32 -1.47328,-0.63898 -2.11328,-0.95898 -0.576,-0.32 -1.08716,-0.60728 -1.53516,-0.86328 -0.448,-0.32 -0.76893,-0.48047 -0.96093,-0.48047 -0.704,0 -1.5361,0.35069 -2.4961,1.05469 -0.96,0.704 -1.8555,1.50439 -2.6875,2.40039 -0.896,0.896 -1.63103,1.82515 -2.20703,2.78515 -0.576,0.96 -0.86523,1.66333 -0.86523,2.11133 0,1.728 0.8955,2.5918 2.6875,2.5918 h 2.11328 0.57617 c 0.704,-0.128 1.37563,-0.25677 2.01562,-0.38477 0.512,-0.128 1.02316,-0.22311 1.53516,-0.28711 0.512,-0.064 0.92805,-0.0957 1.24805,-0.0957 h 3.45703 c 0.832,0 1.50362,-0.06341 2.01562,-0.19141 0.576,-0.064 1.15252,-0.25617 1.72852,-0.57617 0.576,-0.256 1.24763,-0.60864 2.01562,-1.05664 0.768,-0.512 1.85568,-1.15192 3.26368,-1.91992 1.79199,-1.344 3.26401,-2.87942 4.41601,-4.60742 1.152,-1.792 1.72852,-3.55325 1.72852,-5.28125 0,-1.984 -0.19217,-3.775 -0.57617,-5.375 -0.32,-1.6 -0.73605,-3.04031 -1.24805,-4.320315 -0.512,-1.279999 -1.08852,-2.399376 -1.72852,-3.359375 -0.576,-1.023999 -1.08715,-1.98486 -1.53515,-2.880859 -0.384,-0.576 -0.70494,-1.215923 -0.96094,-1.919922 -0.256,-0.704 -0.38281,-1.439032 -0.38281,-2.207031 0,-0.768 0.12681,-1.504986 0.38281,-2.208985 0.256,-0.767999 0.67205,-1.439625 1.24805,-2.015625 0.384,-0.447999 1.18439,-0.864047 2.40039,-1.248047 l 3.83984,-1.152343 c 1.28,-0.448 2.43303,-0.895751 3.45703,-1.34375 1.024,-0.512 1.53516,-1.12022 1.53516,-1.824219 0,-0.895999 -0.38435,-1.791501 -1.15235,-2.6875 -0.76799,-0.895999 -1.63179,-1.34375 -2.59179,-1.34375 z m -438.7207,0.263672 c -0.224,-0.048 -0.51129,-0.04056 -0.86329,0.02344 -1.15199,0.128 -2.11286,0.512345 -2.88085,1.152344 -0.704,0.575999 -1.34393,1.311032 -1.91993,2.207031 -0.576,0.831999 -1.15251,1.761157 -1.72851,2.785156 -0.576,0.959999 -1.24763,1.855501 -2.01563,2.6875 -0.576,0.512 -1.21592,1.02511 -1.91992,1.53711 -0.704,0.447999 -1.34392,0.927453 -1.91992,1.439453 -0.512,0.447999 -0.92805,0.959157 -1.24805,1.535156 -0.32,0.512 -0.41511,1.056813 -0.28711,1.632813 0.128,0.511999 0.25482,1.088516 0.38282,1.728515 0.128,0.64 0.44893,0.958985 0.96093,0.958985 0.96,-0.128 1.63163,-0.351876 2.01563,-0.671875 0.384,-0.384 0.73664,-0.768345 1.05664,-1.152344 0.32,-0.384 0.70239,-0.736641 1.15039,-1.056641 0.448,-0.383999 1.18498,-0.671281 2.20898,-0.863281 0.512,-0.128 0.99146,-0.191406 1.43946,-0.191406 0.512,0 0.92804,0.416047 1.24804,1.248047 l 0.76758,6.335937 c -0.512,2.303999 -0.99145,4.639812 -1.43945,7.007812 -0.448,2.304 -1.37521,4.51105 -2.7832,6.62305 0,0.128 -0.12877,0.64111 -0.38477,1.53711 -0.192,0.896 -0.41588,1.92026 -0.67187,3.07226 -0.256,1.088 -0.47988,2.17568 -0.67188,3.26367 -0.192,1.088 -0.25541,1.85669 -0.19141,2.30469 l 1.34375,2.6875 c 0.192,0.256 0.41588,0.51158 0.67188,0.76758 0.512,0.512 0.92805,0.76758 1.24805,0.76758 0.89599,-0.064 1.72809,-0.19081 2.49609,-0.38281 0.704,-0.128 1.37563,-0.32018 2.01562,-0.57618 0.64,-0.256 1.18482,-0.54523 1.63282,-0.86523 0.32,-0.768 0.60728,-1.6318 0.86328,-2.5918 0.256,-1.024 0.44817,-2.07997 0.57617,-3.16797 0.192,-1.088 0.32077,-2.11226 0.38477,-3.07226 0.064,-1.024 0.064,-1.9195 0,-2.6875 0.384,-0.896 0.54251,-1.82321 0.47851,-2.78321 0,-0.95999 0.19217,-1.88915 0.57617,-2.78515 0.32,-0.896 0.76775,-1.66274 1.34375,-2.30274 0.64,-0.70399 1.18482,-1.28051 1.63282,-1.72851 0,-1.472 0.28728,-3.041081 0.86328,-4.705079 0.64,-1.727999 1.50379,-3.263424 2.59179,-4.607422 0.704,-0.704 1.40929,-1.375626 2.11328,-2.015625 0.768,-0.64 1.5684,-0.960938 2.4004,-0.960938 0.384,0 0.70298,0.03366 0.95898,0.09766 0.32,1e-6 0.64094,0.06341 0.96094,0.191407 l 0.57422,0.287109 h 0.76953 l 1.15039,-0.382812 c 0.384,-0.192 0.80005,-0.415876 1.24804,-0.671875 1.024,-0.959999 1.8561,-2.176439 2.4961,-3.648438 0.704,-1.471998 1.02494,-2.656735 0.96094,-3.552734 -0.128,-0.704 -0.35188,-1.662908 -0.67188,-2.878907 -0.32,-1.279998 -1.08869,-2.272563 -2.30469,-2.976562 -0.256,0 -0.64034,-0.0317 -1.15234,-0.0957 -0.448,-0.064 -0.86405,-0.0323 -1.24805,0.0957 l -2.97461,0.767578 c -0.576,0.448 -1.21592,1.311798 -1.91992,2.591797 -0.704,1.279999 -1.40928,2.593501 -2.11328,3.9375 -0.704,1.343999 -1.43903,2.558485 -2.20703,3.646484 -0.704,1.087999 -1.37563,1.696219 -2.01563,1.824219 -0.192,0.128 -0.41587,0.128 -0.67187,0 l -0.57617,-0.576172 c -0.256,-0.255999 -0.44817,-0.511578 -0.57617,-0.767578 -0.128,-0.511999 -0.0963,-1.151923 0.0957,-1.919922 0.256,-0.831999 0.38476,-1.535328 0.38476,-2.111328 -0.256,-0.767999 -0.32135,-1.568391 -0.19336,-2.40039 0.064,-0.384 0.12936,-0.736641 0.19336,-1.056641 0,-0.703999 -0.25753,-1.312219 -0.76953,-1.824219 -0.512,-0.511999 -1.12022,-0.95975 -1.82422,-1.34375 -0.83199,-0.383999 -1.37486,-0.734688 -1.63085,-1.054687 -0.096,-0.16 -0.25647,-0.2645 -0.48047,-0.3125 z m 397.63281,0 c -0.224,-0.048 -0.51324,-0.04056 -0.86524,0.02344 -1.15199,0.128 -2.1109,0.512345 -2.8789,1.152344 -0.704,0.575999 -1.34392,1.311032 -1.91992,2.207031 -0.576,0.831999 -1.15252,1.761157 -1.72852,2.785156 -0.576,0.959999 -1.24763,1.855501 -2.01562,2.6875 -0.576,0.512 -1.21593,1.02511 -1.91993,1.53711 -0.704,0.447999 -1.34392,0.927453 -1.91992,1.439453 -0.512,0.447999 -0.92805,0.959157 -1.24805,1.535156 -0.31999,0.512 -0.41706,1.056813 -0.28906,1.632813 0.128,0.511999 0.25677,1.088516 0.38477,1.728515 0.128,0.64 0.44698,0.958985 0.95898,0.958985 0.96,-0.128 1.63358,-0.351876 2.01758,-0.671875 0.384,-0.384 0.73469,-0.768345 1.05469,-1.152344 0.32,-0.384 0.70434,-0.736641 1.15234,-1.056641 0.448,-0.383999 1.18499,-0.671281 2.20899,-0.863281 0.512,-0.128 0.99145,-0.191406 1.43945,-0.191406 0.512,0 0.92805,0.416047 1.24805,1.248047 l 0.76757,6.335937 c -0.512,2.303999 -0.99145,4.639812 -1.43945,7.007812 -0.448,2.304 -1.37716,4.51105 -2.78515,6.62305 -1e-5,0.128 -0.12682,0.64111 -0.38282,1.53711 -0.192,0.896 -0.41587,1.92026 -0.67187,3.07226 -0.256,1.088 -0.47988,2.17568 -0.67188,3.26367 -0.192,1.088 -0.25736,1.85669 -0.19336,2.30469 l 1.34375,2.6875 c 0.192,0.256 0.41783,0.51158 0.67383,0.76758 0.512,0.512 0.9261,0.76758 1.24609,0.76758 0.896,-0.064 1.7281,-0.19081 2.4961,-0.38281 0.704,-0.128 1.37758,-0.32018 2.01758,-0.57618 0.64,-0.256 1.18286,-0.54523 1.63086,-0.86523 0.32,-0.768 0.60923,-1.6318 0.86523,-2.5918 0.256,-1.024 0.44622,-2.07997 0.57422,-3.16797 0.192,-1.088 0.32077,-2.11226 0.38477,-3.07226 0.064,-1.024 0.064,-1.9195 0,-2.6875 0.38399,-0.896 0.54446,-1.82321 0.48046,-2.78321 0,-0.95999 0.19218,-1.88915 0.57618,-2.78515 0.32,-0.896 0.76775,-1.66274 1.34375,-2.30274 0.63999,-0.70399 1.18286,-1.28051 1.63085,-1.72851 1e-5,-1.472 0.28924,-3.041081 0.86524,-4.705079 0.64,-1.727999 1.5038,-3.263424 2.5918,-4.607422 0.704,-0.704 1.40733,-1.375626 2.11132,-2.015625 0.768,-0.64 1.5684,-0.960938 2.4004,-0.960938 0.38399,0 0.70493,0.03366 0.96093,0.09766 0.32,1e-6 0.63899,0.06341 0.95899,0.191407 l 0.57617,0.287109 h 0.76758 l 1.15234,-0.382812 c 0.384,-0.192 0.80005,-0.415876 1.24805,-0.671875 1.024,-0.959999 1.85609,-2.176439 2.49609,-3.648438 0.704,-1.471998 1.02494,-2.656735 0.96094,-3.552734 -0.128,-0.704 -0.35383,-1.662908 -0.67383,-2.878907 -0.32,-1.279998 -1.08673,-2.272563 -2.30273,-2.976562 -0.256,0 -0.64035,-0.0317 -1.15235,-0.0957 -0.448,-0.064 -0.86404,-0.0323 -1.24804,0.0957 l -2.97657,0.767578 c -0.576,0.448 -1.21592,1.311798 -1.91992,2.591797 -0.704,1.279999 -1.40733,2.593501 -2.11133,3.9375 -0.704,1.343999 -1.44098,2.558485 -2.20898,3.646484 -0.704,1.087999 -1.37563,1.696219 -2.01563,1.824219 -0.192,0.128 -0.41587,0.128 -0.67187,0 l -0.57617,-0.576172 c -0.256,-0.255999 -0.44818,-0.511578 -0.57617,-0.767578 -0.128,-0.511999 -0.0944,-1.151923 0.0976,-1.919922 0.256,-0.831999 0.38281,-1.535328 0.38281,-2.111328 -0.256,-0.767999 -0.3194,-1.568391 -0.1914,-2.40039 0.064,-0.384 0.1274,-0.736641 0.1914,-1.056641 0,-0.703999 -0.25557,-1.312219 -0.76757,-1.824219 -0.512,-0.511999 -1.12022,-0.95975 -1.82422,-1.34375 -0.832,-0.383999 -1.37682,-0.734688 -1.63282,-1.054687 -0.096,-0.16 -0.25451,-0.2645 -0.47851,-0.3125 z m -597.4082,0.02344 c -0.384,0 -1.2478,0.447751 -2.5918,1.34375 -1.344,0.831999 -2.75261,1.824564 -4.22461,2.976563 -1.408,1.087999 -2.68785,2.207376 -3.83984,3.359375 -1.088,1.087999 -1.63282,1.920094 -1.63282,2.496093 v 1.53711 c 0,0.575999 0.12877,1.055453 0.38477,1.439453 0.128,0.256 0.25676,0.416469 0.38476,0.480469 1.344,0 2.14244,-0.128766 2.39844,-0.384766 0.32,-0.256 0.67264,-0.384766 1.05664,-0.384766 0.96,0 1.63163,0.320939 2.01563,0.960938 0.448,0.575999 0.67187,1.120813 0.67187,1.632812 0,0.704 -0.15851,1.536095 -0.47851,2.496094 -0.256,0.895999 -0.54524,1.823204 -0.86524,2.783203 -0.32,0.959999 -0.63898,1.855501 -0.95898,2.6875 -0.256,0.832001 -0.38477,1.471924 -0.38477,1.919924 v 0.86523 c 0,0.896 -0.12876,1.63103 -0.38476,2.20703 -0.256,0.576 -0.38282,1.34469 -0.38282,2.30469 v 4.51172 l -0.76757,2.6875 v 1.82422 c 0.384,0 0.60787,0.19217 0.67187,0.57617 0.064,0.384 0.0957,0.83175 0.0957,1.34375 v 1.53516 c 0,0.512 0.12682,1.02511 0.38282,1.53711 0.32,0.512 0.70434,0.99145 1.15234,1.43945 0.448,0.512 0.92941,0.89634 1.44141,1.15234 0.576,0.32 1.08715,0.48047 1.53515,0.48047 0.64,0 1.37504,-0.44775 2.20703,-1.34375 0.896,-0.832 1.7281,-1.79286 2.4961,-2.88086 0.768,-1.152 1.47328,-2.27137 2.11328,-3.35937 0.64,-1.088 1.05605,-1.85669 1.24805,-2.30469 0.256,-0.192 0.73545,-0.57634 1.43945,-1.15234 l 2.11133,-1.91993 1.91992,-1.91992 c 0.576,-0.576 0.86523,-0.96034 0.86523,-1.15234 0,-0.512 -0.0317,-0.95975 -0.0957,-1.34375 -0.064,-0.384 -0.28787,-0.57617 -0.67187,-0.57617 h -1.82422 c -0.448,0 -0.86405,0.12876 -1.24805,0.38476 -0.32,0.192 -0.64094,0.44758 -0.96094,0.76758 -0.256,0.384 -0.60864,0.73664 -1.05664,1.05664 -0.384,0.32 -0.83175,0.48047 -1.34375,0.48047 -0.448,0 -0.86405,-0.12877 -1.24804,-0.38477 -0.32,-0.32 -0.60729,-0.67264 -0.86329,-1.05664 -0.256,-0.448 -0.44817,-0.86404 -0.57617,-1.24804 -0.128,-0.448 -0.1914,-0.79869 -0.1914,-1.05469 0,-0.704 0.12681,-1.31222 0.38281,-1.82422 0.32,-0.576 0.54387,-1.12081 0.67187,-1.63281 0.256,-0.704 0.48183,-1.280518 0.67383,-1.728518 0.256,-0.447999 0.38281,-1.022563 0.38281,-1.726562 v -1.056641 c 0.128,-0.511999 0.25677,-0.991453 0.38477,-1.439453 0.128,-0.383999 0.22311,-0.768344 0.28711,-1.152344 0.064,-0.447999 0.0957,-0.832344 0.0957,-1.152343 v -0.767578 c 0,-1.343999 0.12877,-2.560439 0.38477,-3.648438 0.32,-1.087999 0.48047,-2.270782 0.48047,-3.550781 0,-0.384 -0.0317,-0.736641 -0.0957,-1.056641 -0.128,-0.703999 -0.38553,-1.248813 -0.76953,-1.632812 l 0.86524,-2.6875 c 0,-0.895999 -0.35265,-1.728095 -1.05664,-2.496094 -0.704,-0.831999 -1.59951,-1.248047 -2.6875,-1.248047 z m 238.46289,0.576172 c -1.216,-0.128 -2.68802,0.192938 -4.41602,0.960938 -1.728,0.703999 -3.42389,1.662907 -5.08789,2.878906 -1.6,1.215999 -3.00666,2.592908 -4.22266,4.128906 -1.216,1.471999 -1.88957,2.910361 -2.01757,4.318359 l -1.34375,3.167969 -0.57618,1.345703 c -0.32,0.831999 -0.47851,1.630439 -0.47851,2.398438 -0.256,0.383999 -0.38477,0.736641 -0.38477,1.05664 0,0.256 0.0317,0.479876 0.0957,0.671875 0.064,0.192 0.0957,0.384172 0.0957,0.576172 0,0.192 -0.12681,0.384172 -0.38281,0.576172 -0.064,0.384 -0.19277,1.184391 -0.38477,2.400392 -0.128,1.152 -0.28847,2.40014 -0.48047,3.74414 -0.192,1.28 -0.35051,2.49448 -0.47851,3.64648 -0.128,1.088 -0.19336,1.76158 -0.19336,2.01758 v 1.53516 l -0.28711,1.91992 c 0.128,0.192 0.25481,0.41588 0.38281,0.67187 0.256,0.512 0.38477,0.99146 0.38477,1.43946 v 1.63281 c -0.064,0.448 0.0311,0.99281 0.2871,1.63281 0.256,0.64 0.60865,1.27993 1.05665,1.91992 0.512,0.576 1.05681,1.08716 1.63281,1.53516 0.64,0.448 1.24822,0.70358 1.82422,0.76758 0.96,0 1.8872,-0.0317 2.7832,-0.0957 0.96,-0.064 1.98427,-0.57516 3.07227,-1.53516 0.384,-0.384 1.18439,-0.99222 2.40039,-1.82422 1.216,-0.832 2.46414,-1.79286 3.74414,-2.88086 1.28,-1.152 2.46278,-2.36648 3.55078,-3.64648 1.088,-1.344 1.69622,-2.72091 1.82422,-4.12891 0,-0.832 -0.16047,-1.31145 -0.48047,-1.43945 -0.32,-0.128 -0.70435,-0.19336 -1.15235,-0.19336 -0.256,-0.128 -0.67009,-0.03094 -1.24609,0.28906 -0.512,0.256 -1.24898,0.60864 -2.20898,1.05664 -0.256,0.192 -0.67205,0.47928 -1.24805,0.86328 -0.512,0.384 -1.05681,0.76835 -1.63281,1.15235 -0.512,0.32 -0.99146,0.60728 -1.43946,0.86328 -0.448,0.256 -0.70357,0.35306 -0.76757,0.28906 -0.896,0 -1.63299,-0.51311 -2.20899,-1.53711 -0.576,-1.088 -0.79987,-2.17567 -0.67187,-3.26367 v -4.03125 c 0.064,-1.6 0.48004,-2.9135 1.24804,-3.937501 0.832,-1.023999 1.82457,-1.9195 2.97657,-2.6875 1.21599,-0.767999 2.49584,-1.471328 3.83984,-2.111328 1.408,-0.639999 2.71955,-1.376985 3.93555,-2.208984 1.34399,-0.767999 2.6575,-1.663501 3.9375,-2.6875 1.27999,-1.087999 1.91992,-2.496611 1.91992,-4.224609 0.064,-1.215999 -0.0331,-2.36708 -0.28906,-3.455079 -0.256,-1.087999 -0.67205,-2.04886 -1.24805,-2.880859 -0.576,-0.831999 -1.34274,-1.471922 -2.30274,-1.919922 -0.89599,-0.511999 -2.01733,-0.767578 -3.36132,-0.767578 z m 27.26367,0 c -1.216,-0.128 -2.68802,0.192938 -4.41602,0.960938 -1.728,0.703999 -3.42389,1.662907 -5.08789,2.878906 -1.6,1.215999 -3.00666,2.592908 -4.22265,4.128906 -1.216,1.471999 -1.88763,2.910361 -2.01563,4.318359 l -1.3457,3.167969 -0.57422,1.345703 c -0.32,0.831999 -0.48047,1.630439 -0.48047,2.398438 -0.256,0.383999 -0.38477,0.736641 -0.38477,1.05664 0,0.256 0.0317,0.479876 0.0957,0.671875 0.064,0.192 0.0957,0.384172 0.0957,0.576172 0,0.192 -0.12681,0.384172 -0.38281,0.576172 -0.064,0.384 -0.19277,1.184391 -0.38477,2.400392 -0.128,1.152 -0.28847,2.40014 -0.48047,3.74414 -0.192,1.28 -0.35051,2.49448 -0.47851,3.64648 -0.128,1.088 -0.19336,1.76158 -0.19336,2.01758 v 1.53516 l -0.28711,1.91992 c 0.128,0.192 0.25677,0.41588 0.38477,0.67187 0.25599,0.512 0.38281,0.99146 0.38281,1.43946 v 1.63281 c -0.064,0.448 0.0331,0.99281 0.28906,1.63281 0.256,0.64 0.60669,1.27993 1.05469,1.91992 0.512,0.576 1.05681,1.08716 1.63281,1.53516 0.64,0.448 1.24822,0.70358 1.82422,0.76758 0.96,0 1.8872,-0.0317 2.7832,-0.0957 0.96,-0.064 1.98427,-0.57516 3.07227,-1.53516 0.384,-0.384 1.18439,-0.99222 2.40039,-1.82422 1.216,-0.832 2.46414,-1.79286 3.74414,-2.88086 1.28,-1.152 2.46278,-2.36648 3.55078,-3.64648 1.088,-1.344 1.69622,-2.72091 1.82422,-4.12891 0,-0.832 -0.15852,-1.31145 -0.47852,-1.43945 -0.32,-0.128 -0.70434,-0.19336 -1.15234,-0.19336 -0.256,-0.128 -0.67205,-0.03094 -1.24805,0.28906 -0.512,0.256 -1.24898,0.60864 -2.20898,1.05664 -0.256,0.192 -0.67205,0.47928 -1.24805,0.86328 -0.512,0.384 -1.05486,0.76835 -1.63086,1.15235 -0.512,0.32 -0.9934,0.60728 -1.4414,0.86328 -0.448,0.256 -0.70358,0.35306 -0.76758,0.28906 -0.896,0 -1.63103,-0.51311 -2.20703,-1.53711 -0.576,-1.088 -0.79988,-2.17567 -0.67188,-3.26367 v -4.03125 c 0.064,-1.6 0.48005,-2.9135 1.24805,-3.937501 0.832,-1.023999 1.82261,-1.9195 2.97461,-2.6875 1.216,-0.767999 2.49584,-1.471328 3.83984,-2.111328 1.408,-0.639999 2.7215,-1.376985 3.9375,-2.208984 1.344,-0.767999 2.65555,-1.663501 3.93555,-2.6875 1.28,-1.087999 1.91992,-2.496611 1.91992,-4.224609 0.064,-1.215999 -0.0331,-2.36708 -0.28906,-3.455079 -0.256,-1.087999 -0.67205,-2.04886 -1.24805,-2.880859 -0.576,-0.831999 -1.34273,-1.471922 -2.30273,-1.919922 -0.896,-0.511999 -2.01733,-0.767578 -3.36133,-0.767578 z m 308.64062,0 c -1.216,-0.128 -2.68801,0.192938 -4.41601,0.960938 -1.728,0.703999 -3.42389,1.662907 -5.08789,2.878906 -1.6,1.215999 -3.00861,2.592908 -4.22461,4.128906 -1.216,1.471999 -1.88763,2.910361 -2.01563,4.318359 l -1.34375,3.167969 -0.57617,1.345703 c -0.32,0.831999 -0.48047,1.630439 -0.48047,2.398438 -0.256,0.383999 -0.38281,0.736641 -0.38281,1.05664 0,0.256 0.0317,0.479876 0.0957,0.671875 0.064,0.192 0.0957,0.384172 0.0957,0.576172 0,0.192 -0.12682,0.384172 -0.38282,0.576172 -0.064,0.384 -0.19276,1.184391 -0.38476,2.400392 -0.128,1.152 -0.28847,2.40014 -0.48047,3.74414 -0.192,1.28 -0.35247,2.49448 -0.48047,3.64648 -0.128,1.088 -0.19141,1.76158 -0.19141,2.01758 v 1.53516 l -0.28711,1.91992 c 0.128,0.192 0.25482,0.41588 0.38282,0.67187 0.256,0.512 0.38476,0.99146 0.38476,1.43946 v 1.63281 c -0.064,0.448 0.0311,0.99281 0.28711,1.63281 0.256,0.64 0.60864,1.27993 1.05664,1.91992 0.512,0.576 1.05682,1.08716 1.63282,1.53516 0.63999,0.448 1.24626,0.70358 1.82226,0.76758 0.96,0 1.88916,-0.0317 2.78516,-0.0957 0.96,-0.064 1.98426,-0.57516 3.07226,-1.53516 0.384,-0.384 1.18439,-0.99222 2.40039,-1.82422 1.216,-0.832 2.46219,-1.79286 3.74219,-2.88086 1.28,-1.152 2.46474,-2.36648 3.55274,-3.64648 1.08799,-1.344 1.69621,-2.72091 1.82421,-4.12891 0,-0.832 -0.16047,-1.31145 -0.48047,-1.43945 -0.31999,-0.128 -0.70434,-0.19336 -1.15234,-0.19336 -0.256,-0.128 -0.67205,-0.03094 -1.24805,0.28906 -0.512,0.256 -1.24703,0.60864 -2.20703,1.05664 -0.256,0.192 -0.67204,0.47928 -1.24804,0.86328 -0.512,0.384 -1.05682,0.76835 -1.63282,1.15235 -0.512,0.32 -0.99145,0.60728 -1.43945,0.86328 -0.448,0.256 -0.70358,0.35306 -0.76758,0.28906 -0.896,0 -1.63298,-0.51311 -2.20898,-1.53711 -0.576,-1.088 -0.79988,-2.17567 -0.67188,-3.26367 v -4.03125 c 0.064,-1.6 0.48005,-2.9135 1.24805,-3.937501 0.832,-1.023999 1.82456,-1.9195 2.97656,-2.6875 1.216,-0.767999 2.49585,-1.471328 3.83985,-2.111328 1.40799,-0.639999 2.71954,-1.376985 3.93554,-2.208984 1.344,-0.767999 2.6575,-1.663501 3.9375,-2.6875 1.28,-1.087999 1.91993,-2.496611 1.91993,-4.224609 0.064,-1.215999 -0.0331,-2.36708 -0.28907,-3.455079 -0.256,-1.087999 -0.67204,-2.04886 -1.24804,-2.880859 -0.576,-0.831999 -1.34469,-1.471922 -2.30469,-1.919922 -0.896,-0.511999 -2.01538,-0.767578 -3.35938,-0.767578 z m -207.26367,0.191406 c 0.384,0 0.99222,0.09706 1.82422,0.289063 0.896,0.192 1.7598,0.415875 2.5918,0.671875 0.896,0.255999 1.69639,0.479875 2.40039,0.671875 0.768,0.192 1.24745,0.287109 1.43945,0.287109 0.512,0.384 0.79928,0.960517 0.86328,1.728516 0.128,0.767999 0.19336,1.344516 0.19336,1.728515 0.512,0.512 0.79928,0.991454 0.86328,1.439453 0.128,0.384 0.19141,0.800048 0.19141,1.248047 l 0.57617,2.6875 c -0.128,0.256 -0.28652,0.800814 -0.47851,1.632813 -0.192,0.767999 -0.48124,1.600095 -0.86524,2.496094 -0.32,0.831999 -0.76775,1.600688 -1.34375,2.304687 -0.576,0.639999 -1.27933,0.958985 -2.11133,0.958985 l -1.91992,-0.767579 c -0.32,0 -0.70434,0.09511 -1.15234,0.28711 -0.384,0.192 -0.83175,0.384172 -1.34375,0.576172 l -1.72852,0.767578 c -0.448,0 -1.02452,-0.09511 -1.72851,-0.28711 -0.64,-0.255999 -1.24822,-0.576938 -1.82422,-0.960937 -0.576,-0.448 -1.02375,-0.927454 -1.34375,-1.439453 -0.32,-0.576 -0.38341,-1.18422 -0.19141,-1.824219 0,-0.32 -0.0317,-0.512172 -0.0957,-0.576172 -0.064,-0.128 -0.16107,-0.254813 -0.28906,-0.382812 l -0.38282,-0.19336 c 0,-0.383999 0.12682,-0.766391 0.38282,-1.15039 0.25599,-0.448 0.38476,-0.929407 0.38476,-1.441407 V 54.903143 51.159002 49.52619 c 0,-0.895999 0.19217,-1.535922 0.57617,-1.919922 0.448,-0.448 0.89575,-0.671875 1.34375,-0.671875 0.448,-0.32 0.86405,-0.512172 1.24805,-0.576172 0.384,-0.128 0.73664,-0.254813 1.05664,-0.382812 0.32,-0.064 0.60728,-0.12936 0.86328,-0.19336 z m 101.95117,0.576172 c -0.256,0 -0.67204,0.320938 -1.24804,0.960938 -0.576,0.575999 -1.21593,1.311032 -1.91993,2.207031 -0.70399,0.895999 -1.47073,1.920267 -2.30273,3.072265 -0.768,1.087999 -1.53669,2.14397 -2.30469,3.167969 -0.704,0.959999 -1.37562,1.855501 -2.01562,2.6875 -0.64,0.767999 -1.11946,1.28111 -1.43946,1.53711 -0.89599,0.575999 -1.60128,0.831578 -2.11328,0.767578 -0.448,-0.064 -0.79868,-0.256172 -1.05468,-0.576172 -0.256,-0.384 -0.41647,-0.800047 -0.48047,-1.248047 -0.064,-0.511999 -0.0957,-0.864641 -0.0957,-1.056641 v -2.6875 c -0.064,-0.575999 -5.9e-4,-1.342735 0.19141,-2.302734 0.192,-0.959999 0.32077,-1.889157 0.38477,-2.785156 0.128,-0.959999 0.0626,-1.760392 -0.19336,-2.400391 -0.192,-0.703999 -0.76657,-1.054687 -1.72657,-1.054687 -0.448,0 -1.08792,0.287281 -1.91992,0.863281 -0.832,0.511999 -1.66409,1.120219 -2.49609,1.824219 -0.832,0.639999 -1.60069,1.279922 -2.30469,1.919921 l -1.24805,1.248047 c -0.96,0.384 -1.8872,1.023923 -2.7832,1.919922 -0.896,0.831999 -1.76175,1.695798 -2.59375,2.591797 -0.704,0 -1.34392,0.416048 -1.91992,1.248047 -0.512,0.767999 -0.76758,1.600095 -0.76758,2.496094 0.064,0.128 0.19277,0.256766 0.38477,0.384765 0.384,0.256 0.80004,0.382813 1.24804,0.382813 0.768,0 1.37622,-0.126813 1.82422,-0.382813 0.512,-0.255999 0.95975,-0.545234 1.34375,-0.865234 0.384,-0.384 0.73469,-0.702985 1.05469,-0.958984 0.384,-0.256 0.76834,-0.384766 1.15234,-0.384766 0.896,0 1.40911,0.255579 1.53711,0.767578 0.192,0.512 0.28711,1.217282 0.28711,2.113281 0,0.448 -0.12681,0.864048 -0.38281,1.248047 -0.256,0.384 -0.38477,0.766391 -0.38477,1.150391 0.064,0.959999 -0.15987,2.497377 -0.67187,4.609375 -0.448,2.111998 -1.02452,4.319048 -1.72852,6.623048 -0.64,2.24 -1.27992,4.32024 -1.91992,6.24023 -0.64,1.92 -1.08775,3.13644 -1.34375,3.64844 -0.384,0.832 -0.4474,1.53533 -0.19141,2.11133 0.32,0.512 0.47852,0.95975 0.47852,1.34375 0,0.256 0.0654,0.60864 0.19336,1.05664 0.128,0.384 0.28652,0.80005 0.47852,1.24805 0.256,0.384 0.54523,0.70493 0.86523,0.96093 0.384,0.32 0.76834,0.47852 1.15234,0.47852 1.408,0 2.59079,-0.60822 3.55079,-1.82422 1.02399,-1.28 1.85609,-2.68666 2.49609,-4.22266 0.64,-1.53599 1.12141,-2.97631 1.44141,-4.32031 0.31999,-1.344 0.47851,-2.08098 0.47851,-2.20898 0.512,-1.088 0.99341,-2.27079 1.44141,-3.55078 0.448,-1.28 1.11962,-2.59155 2.01562,-3.93555 0.192,-0.384 0.51099,-1.05758 0.95899,-2.01758 0.512,-1.023999 1.08851,-2.079969 1.72851,-3.167968 0.704,-1.151998 1.50439,-2.207969 2.40039,-3.167968 0.896,-1.023999 1.88857,-1.695626 2.97657,-2.015625 0.38399,-0.32 0.92686,-0.222937 1.63085,0.289062 0.704,0.448 1.05665,1.054267 1.05665,1.822266 0.12799,0.511999 -7.7e-4,1.153876 -0.38477,1.921875 -0.384,0.767999 -0.70299,1.566438 -0.95899,2.398437 -0.89599,2.176001 -1.34374,3.871891 -1.34374,5.087891 v 0.76953 c 0,0.896 -0.25754,1.91831 -0.76954,3.07031 -0.448,1.088 -0.95915,2.30444 -1.53515,3.64844 -0.512,1.344 -0.99146,2.78432 -1.43946,4.32031 -0.448,1.536 -0.64017,3.10508 -0.57617,4.70508 0,0.192 0.19217,0.44758 0.57617,0.76758 0.384,0.32 0.86346,0.60728 1.43946,0.86328 0.576,0.32 1.15251,0.57558 1.72851,0.76758 0.64,0.192 1.18286,0.28906 1.63086,0.28906 0.832,0 1.60069,-0.70528 2.30469,-2.11328 0.768,-1.408 1.50303,-3.1673 2.20703,-5.2793 0.704,-2.11199 1.40928,-4.41611 2.11328,-6.91211 0.704,-2.55999 1.47074,-4.95922 2.30274,-7.19921 0.832,-2.304003 1.72945,-4.289131 2.68945,-5.953129 0.96,-1.727999 2.07938,-2.815673 3.35937,-3.263672 0.576,-0.256 1.05546,-0.158937 1.43946,0.289062 0.384,0.384 0.67323,0.92686 0.86523,1.63086 0.256,0.639999 0.41452,1.345282 0.47852,2.113281 0.064,0.767999 0.0957,1.374266 0.0957,1.822266 l -0.38281,1.345703 c -0.128,0.383999 -0.22506,0.766389 -0.28906,1.150389 -0.064,0.384 -0.0957,0.70494 -0.0957,0.96094 -0.192,1.408 -0.57634,2.84831 -1.15234,4.32031 -0.576,1.408 -1.18227,2.84832 -1.82227,4.32031 -0.64,1.472 -1.21651,3.03913 -1.72851,4.70313 -0.448,1.6 -0.67188,3.29589 -0.67188,5.08789 0,0.256 0.0634,0.67205 0.19141,1.24805 0.128,0.512 0.35187,1.02315 0.67187,1.53515 0.32,0.512 0.70435,0.96171 1.15235,1.34571 0.448,0.448 1.02451,0.67187 1.72851,0.67187 0.96,0 1.72674,-0.16047 2.30274,-0.48047 0.576,-0.32 1.08911,-0.76775 1.53711,-1.34375 0.512,-0.512 1.05486,-1.08851 1.63086,-1.72851 0.576,-0.64 1.34469,-1.31163 2.30468,-2.01563 0.448,-0.512 1.11963,-1.24898 2.01563,-2.20898 l 2.6875,-3.07227 c 1.024,-1.152 2.11363,-2.43184 3.26562,-3.83984 0.064,-0.96 -0.15987,-1.43946 -0.67187,-1.43946 -0.512,-0.064 -1.12022,0.09647 -1.82422,0.48047 -0.704,0.32 -1.40928,0.73605 -2.11328,1.24805 -0.704,0.512 -1.21516,0.86464 -1.53516,1.05664 -0.768,0.512 -1.31281,0.73588 -1.63281,0.67188 -0.32,-0.064 -0.51217,-0.25618 -0.57617,-0.57618 -0.064,-0.384 -0.064,-0.80004 0,-1.24804 0.064,-0.512 0.0977,-0.92805 0.0977,-1.24805 0,-1.152 0.25557,-2.65572 0.76757,-4.51172 0.576,-1.856 1.18422,-3.77772 1.82422,-5.761718 0.704,-1.983998 1.34392,-3.838407 1.91992,-5.566406 0.576,-1.791998 0.86329,-3.168907 0.86329,-4.128906 v -1.919922 c 0,-0.256 0.0634,-0.672047 0.1914,-1.248047 0.128,-0.575999 0.28847,-1.152516 0.48047,-1.728515 0.192,-0.64 0.35247,-1.214563 0.48047,-1.726563 0.128,-0.575999 0.1914,-0.960344 0.1914,-1.152344 0,-0.895999 -0.31898,-1.728094 -0.95898,-2.496093 -0.576,-0.832 -1.50516,-1.248047 -2.78516,-1.248047 -0.95999,0 -2.04767,0.479454 -3.26367,1.439453 -1.216,0.959999 -2.40073,2.047673 -3.55273,3.263672 -1.152,1.215999 -2.20797,2.400735 -3.16797,3.552734 -0.96,1.151999 -1.63163,1.887032 -2.01563,2.207031 -0.70399,0.512 -1.18345,0.704172 -1.43945,0.576172 -0.256,-0.128 -0.44817,-0.383578 -0.57617,-0.767578 -0.064,-0.447999 -0.064,-0.927454 0,-1.439453 0.064,-0.511999 0.0957,-0.864641 0.0957,-1.056641 l 0.57617,-2.40039 c 0,-0.448 -0.16046,-1.022563 -0.48046,-1.726563 -0.256,-0.767999 -0.67205,-1.504985 -1.24805,-2.208984 -0.512,-0.703999 -1.15192,-1.280516 -1.91992,-1.728516 -0.704,-0.511999 -1.5361,-0.767578 -2.4961,-0.767578 z m -349.53515,1.34375 c -0.96,0 -1.69699,0.384345 -2.20899,1.152344 -0.512,0.767999 -1.02315,1.631798 -1.53515,2.591797 -0.448,0.511999 -0.80064,1.151922 -1.05664,1.919922 -0.256,0.767999 -0.44818,1.536688 -0.57618,2.304687 l -0.76757,2.496094 c -0.192,0.831999 -0.54269,1.600688 -1.05469,2.304687 -0.768,0.704 -1.40792,1.343923 -1.91992,1.919922 -0.448,0.512 -0.86405,1.05486 -1.24805,1.63086 -0.384,0.511999 -0.76834,1.088516 -1.15234,1.728515 -0.384,0.576 -0.83175,1.215923 -1.34375,1.919922 -0.192,0.512 -0.44954,1.312391 -0.76954,2.400392 -0.32,1.024 -0.67068,2.07997 -1.05468,3.16797 -0.384,1.024 -0.80005,1.9512 -1.24805,2.7832 -0.384,0.832 -0.76834,1.24805 -1.15234,1.24805 -0.256,0 -0.57694,-0.16047 -0.96094,-0.48047 -0.384,-0.384 -0.73469,-0.83175 -1.05469,-1.34375 -0.256,-0.512 -0.47987,-1.05486 -0.67187,-1.63086 -0.128,-0.576 -0.128,-1.08911 0,-1.53711 0.128,-0.96 0.128,-1.76039 0,-2.40039 -0.064,-0.640001 -0.22447,-1.279923 -0.48047,-1.919922 -0.192,-0.64 -0.41588,-1.311626 -0.67188,-2.015626 -0.256,-0.767999 -0.47987,-1.695204 -0.67187,-2.783203 -0.448,-1.343998 -0.96111,-2.720907 -1.53711,-4.128906 -0.576,-1.407998 -1.31103,-3.038533 -2.20703,-4.894531 -0.96,-1.343999 -1.76039,-2.433626 -2.40039,-3.265625 -0.64,-0.895999 -1.63257,-1.34375 -2.97657,-1.34375 -0.896,0 -1.75979,0.192172 -2.59179,0.576172 -0.768,0.383999 -1.40793,0.83175 -1.91993,1.34375 -0.19199,0.255999 -0.73486,0.895923 -1.63085,1.919922 -0.896,0.959999 -1.85686,2.01597 -2.88086,3.167968 -0.96,1.087999 -1.8238,2.112267 -2.5918,3.072266 -0.768,0.959999 -1.15234,1.536516 -1.15234,1.728516 0,0.895999 0.35264,1.567625 1.05664,2.015625 0.704,0.383999 1.31222,0.576172 1.82421,0.576172 l 1.63086,-0.767579 h 2.11329 0.76757 c 0.448,0 0.73529,-0.128766 0.86328,-0.384765 0.192,-0.256 0.54465,-0.127234 1.05665,0.384765 1.02399,0.704 2.01656,1.599501 2.97656,2.6875 1.024,1.023999 1.8878,2.177033 2.59179,3.457032 0.704,1.215999 1.27857,2.495849 1.72657,3.839839 0.448,1.28 0.67187,2.49449 0.67187,3.64649 v 0.76953 c 0,0.32 0.12877,0.73605 0.38477,1.24805 0.128,0.256 0.28847,0.47987 0.48047,0.67187 v 0.76758 c 0,0.896 0.12681,1.47252 0.38281,1.72852 0.256,0.192 0.38477,0.51098 0.38477,0.95898 -10e-6,0.32 -0.0317,0.73605 -0.0957,1.24805 -0.064,0.448 -0.16106,0.92745 -0.28906,1.43945 -0.128,0.576 -0.25481,1.18422 -0.38281,1.82422 v 2.11328 1.63086 c 0,0.96 -0.16047,1.98427 -0.48047,3.07227 -0.32,1.08799 -0.73605,2.14396 -1.24805,3.16796 -0.448,1.088 -1.02452,2.11227 -1.72851,3.072264 -0.64,0.96 -1.27993,1.76039 -1.91993,2.40039 -0.384,0.96 -1.02392,2.04767 -1.91992,3.26367 -0.832,1.216 -1.6958,2.27197 -2.5918,3.16797 -0.44799,0.896 -0.99086,1.7598 -1.63085,2.5918 -0.64,0.896 -1.18482,1.53592 -1.63282,1.91992 -1.28,1.344 -2.59155,2.46338 -3.93554,3.35937 -1.344,0.96 -2.68921,1.63358 -4.03321,2.01758 -0.704,0.704 -1.43903,1.15175 -2.20703,1.34375 -0.768,0.256 -1.53669,0.44817 -2.30469,0.57617 -0.83199,0.128 -1.63239,0.25482 -2.40039,0.38282 -0.832,0.128 -1.56703,0.41723 -2.20703,0.86523 l -3.16797,-0.48047 c -0.704,0 -1.53609,-0.28923 -2.49609,-0.86523 -1.024,-0.512 -2.14338,-1.02316 -3.35938,-1.53516 -0.95999,-0.512 -1.85745,-0.95975 -2.68945,-1.34375 -0.896,-0.384 -1.69444,-0.57617 -2.39844,-0.57617 -0.70399,0 -1.50439,0.19217 -2.40039,0.57617 -0.896,0.384 -1.75979,0.89516 -2.59179,1.53516 -0.832,0.704 -1.53728,1.47269 -2.11328,2.30469 -0.576,0.83199 -0.86329,1.69579 -0.86329,2.59179 0,0.256 0.0317,0.64035 0.0957,1.15235 0.064,0.576 0.16106,1.15251 0.28906,1.72851 0.064,0.576 0.15911,1.08716 0.28711,1.53516 0.064,0.448 0.0957,0.73528 0.0957,0.86328 0.384,0.512 0.99222,0.99341 1.82422,1.44141 0.768,0.448 1.40792,0.67187 1.91992,0.67187 0.832,0.832 1.56899,1.47192 2.20899,1.91992 0.576,0.512 1.24762,0.76758 2.01562,0.76758 0.512,-0.128 1.02316,-0.28847 1.53516,-0.48047 l 1.34375,-0.38281 c 0.384,-0.128 0.67323,-0.19336 0.86523,-0.19336 0.448,0 1.08793,0.16047 1.91993,0.48047 0.76799,0.384 1.31085,0.57617 1.63085,0.57617 h 2.88086 c 0.384,0 0.96052,-0.19217 1.72852,-0.57617 0.768,-0.32 1.34256,-0.48047 1.72656,-0.48047 h 1.05664 c 1.216,-0.704 2.36903,-1.34392 3.45703,-1.91992 0.896,-0.512 1.7915,-0.99146 2.6875,-1.43945 0.832,-0.448 1.47193,-0.73529 1.91993,-0.86329 2.62399,-2.87999 6.17625,-5.66551 10.65625,-8.35351 0.89599,-0.512 1.8232,-1.47091 2.7832,-2.87891 1.024,-1.408 2.14337,-2.91172 3.35937,-4.51172 2.688,-3.00799 4.54436,-5.79156 5.56836,-8.35156 0,-0.384 0.25753,-0.96052 0.76953,-1.72851 0.576,-0.768 1.21593,-1.6001 1.91993,-2.4961 0.704,-0.704 1.12004,-1.217104 1.24804,-1.537104 0.128,-0.256 0.35188,-0.63839 0.67188,-1.15039 l 0.76758,-2.11328 c 0.128,-0.448 0.25481,-0.83234 0.38281,-1.15234 l 0.38476,-0.95899 c 0.192,-0.32 0.38418,-0.67264 0.57618,-1.05664 0.256,-0.384 0.51157,-0.92686 0.76757,-1.63086 0.32,-0.96 0.64094,-1.69698 0.96094,-2.20898 0.32,-0.512 0.60728,-0.99146 0.86328,-1.43946 0.32,-0.448 0.60728,-0.86404 0.86328,-1.24804 0.256,-0.448 0.51354,-1.05622 0.76954,-1.82422 0.128,-0.192 0.32017,-0.51294 0.57617,-0.96094 0.256,-0.448 0.54328,-0.92745 0.86328,-1.43945 0.256,-0.576 0.57498,-1.18422 0.95898,-1.82422 0,-0.96 0.16047,-1.66333 0.48047,-2.11133 0.384,-0.512 0.76835,-0.95975 1.15235,-1.34375 0.512,-0.768 0.89634,-1.56839 1.15234,-2.40039 0.32,-0.832 0.60728,-1.66409 0.86328,-2.49609 0.32,-0.896 0.67264,-1.7598 1.05664,-2.5918 0.448,-0.895999 1.11963,-1.791501 2.01563,-2.6875 0,-0.128 0.0317,-0.288469 0.0957,-0.480469 0.128,-0.383999 0.44894,-0.576172 0.96094,-0.576172 1.152,0 2.0475,-0.192172 2.6875,-0.576171 0.704,-0.448 1.24881,-0.990861 1.63281,-1.63086 0.384,-0.639999 0.63958,-1.313579 0.76758,-2.017578 0.128,-0.767999 0.1914,-1.503032 0.1914,-2.207031 v -1.53711 l 1.15235,-6.43164 c 0,-0.959999 -0.32094,-1.823798 -0.96094,-2.591797 -0.576,-0.767999 -1.5032,-1.152344 -2.7832,-1.152344 z m 114.62304,5.087891 1.63282,0.193359 c 0.384,0.128 0.70493,0.286516 0.96093,0.478516 0.256,0.128 0.47988,0.320172 0.67188,0.576172 0.192,0.255999 0.28711,0.545234 0.28711,0.865234 v 1.630859 c -0.064,0.64 -0.38299,1.24822 -0.95899,1.824219 -0.512,0.512 -1.12022,0.959751 -1.82422,1.34375 -0.63999,0.384 -1.27992,0.673235 -1.91992,0.865234 -0.64,0.192 -1.1214,0.255407 -1.4414,0.191407 -0.384,0 -0.63958,-0.09511 -0.76758,-0.28711 -0.128,-0.255999 -0.1597,-0.545234 -0.0957,-0.865234 0.064,-0.384 0.15911,-0.768344 0.2871,-1.152344 0.128,-0.447999 0.22507,-0.830391 0.28907,-1.15039 0.32,-0.768 0.63898,-1.504985 0.95898,-2.208985 0.32,-0.575999 0.64094,-1.087156 0.96094,-1.535156 0.32,-0.511999 0.63898,-0.769531 0.95898,-0.769531 z m 27.26563,0 1.63086,0.193359 c 0.384,0.128 0.70494,0.286516 0.96094,0.478516 0.256,0.128 0.47987,0.320172 0.67187,0.576172 0.192,0.255999 0.28711,0.545234 0.28711,0.865234 v 1.630859 c -0.064,0.64 -0.38298,1.24822 -0.95898,1.824219 -0.512,0.512 -1.12022,0.959751 -1.82422,1.34375 -0.64,0.384 -1.27993,0.673235 -1.91992,0.865234 -0.64,0.192 -1.11946,0.255407 -1.43946,0.191407 -0.384,0 -0.64153,-0.09511 -0.76953,-0.28711 -0.128,-0.255999 -0.1597,-0.545234 -0.0957,-0.865234 0.064,-0.384 0.16106,-0.768344 0.28906,-1.152344 0.128,-0.447999 0.22311,-0.830391 0.28711,-1.15039 0.32,-0.768 0.64094,-1.504985 0.96094,-2.208985 0.32,-0.575999 0.63898,-1.087156 0.95898,-1.535156 0.32,-0.511999 0.64094,-0.769531 0.96094,-0.769531 z m 308.63867,0 1.63281,0.193359 c 0.384,0.128 0.70299,0.286516 0.95899,0.478516 0.256,0.128 0.47987,0.320172 0.67187,0.576172 0.192,0.255999 0.28906,0.545234 0.28906,0.865234 v 1.630859 c -0.064,0.64 -0.38493,1.24822 -0.96093,1.824219 -0.512,0.512 -1.11827,0.959751 -1.82227,1.34375 -0.64,0.384 -1.28187,0.673235 -1.92187,0.865234 -0.64,0.192 -1.11946,0.255407 -1.43946,0.191407 -0.384,0 -0.63957,-0.09511 -0.76757,-0.28711 -0.128,-0.255999 -0.15971,-0.545234 -0.0957,-0.865234 0.064,-0.384 0.15911,-0.768344 0.28711,-1.152344 0.128,-0.447999 0.22506,-0.830391 0.28906,-1.15039 0.32,-0.768 0.63899,-1.504985 0.95899,-2.208985 0.32,-0.575999 0.64094,-1.087156 0.96094,-1.535156 0.32,-0.511999 0.63898,-0.769531 0.95898,-0.769531 z m -151.55859,1.824219 c 0.432,-0.096 0.77525,-0.03064 1.03125,0.193359 0.576,0.383999 0.92864,1.055626 1.05664,2.015625 0.192,0.895999 0.2554,1.854907 0.1914,2.878906 -0.064,0.959999 -0.0957,1.568219 -0.0957,1.824219 0,0.32 -0.35264,1.280861 -1.05664,2.880859 -0.64,1.599999 -1.47209,3.327596 -2.49609,5.183594 -0.96,1.856 -2.01597,3.52019 -3.16797,4.99219 -1.088,1.472 -2.04691,2.20703 -2.87891,2.20703 -0.896,0 -1.53592,-0.35069 -1.91992,-1.05469 -0.32,-0.768 -0.54583,-1.60009 -0.67383,-2.49609 -0.128,-0.96 -0.1597,-1.8555 -0.0957,-2.6875 0.064,-0.896 0.0957,-1.504222 0.0957,-1.824221 0,-0.64 0.22583,-1.503798 0.67383,-2.591797 0.448,-1.151999 1.05427,-2.368439 1.82226,-3.648438 0.768,-1.279998 1.66546,-2.528141 2.68946,-3.74414 1.024,-1.279999 2.11167,-2.399376 3.26367,-3.359375 0.608,-0.416 1.12855,-0.673532 1.56055,-0.769531 z m 94.05468,3.263671 c 2.304,0 3.45704,1.153034 3.45704,3.457032 l -0.48047,1.535156 0.48047,1.919922 v 2.113281 2.400391 c 0,0.895999 -0.32094,1.886609 -0.96094,2.974609 -0.576,1.088 -1.31103,2.14397 -2.20703,3.16797 -0.896,1.024 -1.88857,1.95316 -2.97657,2.78515 -1.02399,0.832 -1.98486,1.40657 -2.88086,1.72657 h -1.15039 c -0.32,0 -0.54387,-0.15852 -0.67187,-0.47852 -0.128,-0.384 -0.25677,-0.80005 -0.38477,-1.24805 -0.128,-0.51199 -0.1914,-1.08851 -0.1914,-1.72851 v -3.74414 c 0,-0.512 0.25558,-1.56797 0.76758,-3.16797 0.512,-1.663998 1.15192,-3.359892 1.91992,-5.087891 0.768,-1.727998 1.60009,-3.263423 2.49609,-4.607421 0.96,-1.343999 1.88721,-2.017579 2.7832,-2.017579 z m -457.05468,0.19336 c 0.384,0 0.83175,0.287282 1.34375,0.863281 0.512,0.511999 0.76757,1.120219 0.76757,1.824219 0,0.575999 -0.22387,1.279329 -0.67187,2.111328 -0.384,0.831999 -0.89711,1.632391 -1.53711,2.400391 -0.576,0.703999 -1.24763,1.312219 -2.01562,1.824218 -0.704,0.448 -1.34393,0.640172 -1.91993,0.576172 -0.576,0 -1.05545,-0.128766 -1.43945,-0.384766 -0.32,-0.255999 -0.54387,-0.574984 -0.67187,-0.958984 -0.128,-0.383999 -0.22507,-0.800047 -0.28907,-1.248047 v -1.152343 c 0.128,-1.727999 0.76793,-3.168314 1.91992,-4.320313 1.152,-1.151999 2.65768,-1.663156 4.51368,-1.535156 z m 236.44726,0 c 0.384,0 0.83175,0.287282 1.34375,0.863281 0.512,0.511999 0.76758,1.120219 0.76758,1.824219 0,0.575999 -0.22387,1.279329 -0.67187,2.111328 -0.384,0.831999 -0.89516,1.632391 -1.53516,2.400391 -0.576,0.703999 -1.24763,1.312219 -2.01563,1.824218 -0.70399,0.448 -1.34392,0.640172 -1.91992,0.576172 -0.576,0 -1.0574,-0.128766 -1.4414,-0.384766 -0.32,-0.255999 -0.54388,-0.574984 -0.67188,-0.958984 -0.128,-0.383999 -0.22311,-0.800047 -0.28711,-1.248047 v -1.152343 c 0.128,-1.727999 0.76792,-3.168314 1.91992,-4.320313 1.152,-1.151999 2.65572,-1.663156 4.51172,-1.535156 z" />
  </g>
</svg>
